<?xml version="1.0" encoding="UTF-8"?>
<!DOCTYPE svg PUBLIC "-//W3C//DTD SVG 1.1//EN" "http://www.w3.org/Graphics/SVG/1.1/DTD/svg11.dtd">
<!-- Creator: CorelDRAW 2017 -->
<svg xmlns="http://www.w3.org/2000/svg" xml:space="preserve" width="10.5in" height="11.5in" version="1.1" style="shape-rendering:geometricPrecision; text-rendering:geometricPrecision; image-rendering:optimizeQuality; fill-rule:evenodd; clip-rule:evenodd"
viewBox="0 0 10500 11500"
 xmlns:xlink="http://www.w3.org/1999/xlink">
 <defs>
  <style type="text/css">
   <![CDATA[
    .str0 {stroke:#293138;stroke-width:6.94;stroke-miterlimit:2.61313}
    .fil3 {fill:none}
    .fil1 {fill:#FEFEFE}
    .fil0 {fill:#293138}
    .fil2 {fill:#4FA847}
   ]]>
  </style>
 </defs>
 <g id="Layer_x0020_1">
  <metadata id="CorelCorpID_0Corel-Layer"/>
  <g id="_2206499402752">
   <path class="fil0" d="M9478.74 2493.91l-3540.7 -2102.08c-211.15,-124.81 -447.63,-187.69 -683.17,-187.69 -235.55,0 -472.04,62.87 -683.18,188.63l-3541.64 2102.08c-422.29,250.56 -683.18,714.14 -683.18,1216.2l0 4204.17c0,502.06 259.95,965.65 683.18,1216.21l3540.7 2102.08c211.15,125.75 446.7,187.69 683.18,187.69 235.55,0 472.04,-62.87 683.18,-187.69l3541.64 -2102.08c422.29,-250.56 683.17,-715.08 683.17,-1216.21l0 -4205.1c0,-501.13 -259.94,-965.65 -683.17,-1216.21z"/>
   <path class="fil1 str0" d="M9351.75 2593.69l-3434.26 -2038.89c-204.8,-121.06 -434.17,-182.04 -662.63,-182.04 -228.46,0 -457.84,60.98 -662.64,182.95l-3435.17 2038.89c-409.59,243.02 -662.64,692.67 -662.64,1179.64l0 4077.78c0,486.97 252.13,936.62 662.64,1179.65l3434.26 2038.89c204.8,121.97 433.27,182.04 662.64,182.04 228.47,0 457.85,-60.98 662.64,-182.04l3435.17 -2038.89c409.59,-243.03 662.63,-693.58 662.63,-1179.65l0 -4078.69c0,-486.06 -252.13,-936.61 -662.63,-1179.65z"/>
   <path class="fil0" d="M10014.38 3773.33c0,-129.3 -17.84,-256.08 -51.75,-377.11 -138.86,-135.78 -355.64,-148.41 -600.07,-5.76l-3350.2 2069.24c-417.61,243.99 -725.41,518.01 -726.35,1021.95l0 4128.15c0,301.23 122,496.43 308.74,553.67 24.81,7.28 49.93,14.04 75.36,20.3 84.83,-28.77 167.47,-66.52 246.46,-113.21l3435.17 -2038.89c409.6,-243.04 662.63,-693.59 662.63,-1179.65l0 -4078.68z"/>
   <path class="fil2" d="M8831.23 8257.7l-882.13 527.4c-23.46,14.07 -40.35,29.09 -40.35,57.24l0 230.85c0,28.15 18.77,40.35 42.23,26.28l895.26 -544.29c23.46,-14.08 27.22,-39.41 27.22,-67.57l0 -203.64c0,-28.16 -18.77,-39.41 -42.23,-26.28z"/>
   <g>
    <path class="fil3" d="M7255.15 7018.97c-48.2,-10.66 -155.67,-30.32 -322.37,53.49 -180.19,91.03 -243.06,247.75 -242.13,364.11 1.89,138.89 72.26,181.11 318.13,184.87 327.51,5.63 468.27,148.28 472.03,477.66 4.69,322.82 -167.98,670.98 -432.62,883.06l-30.97 13.14 5.63 302.17c0,36.6 -23.46,77.89 -51.61,92.91l-179.24 103.23c-28.15,14.07 -52.56,-2.81 -52.56,-39.42l-2.8 -297.48c-152.97,63.82 -308.74,78.83 -407.29,39.42 -18.76,-7.51 -27.22,-34.73 -19.7,-66.63l64.75 -273.08c5.63,-21.58 16.89,-43.17 31.91,-56.31 5.63,-5.64 11.26,-9.39 16.89,-12.2 10.32,-5.64 20.65,-6.57 29.09,-2.82 106.98,35.67 243.06,18.78 374.44,-46.92 167.04,-84.45 278.71,-255.25 276.83,-424.17 -1.88,-153.91 -84.46,-216.78 -286.22,-218.66 -257.13,0.94 -497.37,-49.74 -501.13,-428.86 -2.81,-311.56 158.6,-636.26 415.73,-840.83l-2.81 -305c0,-37.53 22.52,-78.82 51.61,-93.83l173.61 -110.74c28.15,-14.08 52.55,3.76 52.55,40.35l2.81 304.99c127.63,-50.68 238.36,-64.75 338.77,-41.29 21.59,5.63 31.91,35.66 22.53,70.38l-67.57 270.27c-5.63,20.64 -16.89,41.29 -30.97,54.43"/>
    <path class="fil3" d="M7272.49 7015.21c-5.52,2.18 -11.3,3.43 -17.34,3.76"/>
   </g>
   <path class="fil1" d="M7008.79 7621.44c-245.87,-3.76 -316.25,-45.98 -318.13,-184.87 -0.93,-116.37 61.94,-273.08 242.13,-364.11 166.7,-83.81 274.17,-64.15 322.37,-53.49 6.04,-0.33 11.82,-1.58 17.34,-3.76 14.08,-13.14 25.33,-33.78 30.97,-54.43l67.57 -270.27c9.39,-34.72 -0.94,-64.75 -22.53,-70.38 -100.41,-23.46 -211.14,-9.39 -338.77,41.29l-2.81 -304.99c0,-36.59 -24.4,-54.43 -52.55,-40.35l-173.61 110.74c-29.1,15.01 -51.61,56.3 -51.61,93.83l2.81 305c-257.13,204.57 -418.54,529.28 -415.73,840.83 3.76,379.12 244,429.8 501.13,428.86 201.76,1.87 284.34,64.75 286.22,218.66 1.87,168.92 -109.8,339.72 -276.83,424.17 -131.38,65.7 -267.46,82.59 -374.44,46.92 -8.44,-3.75 -18.77,-2.82 -29.09,2.82 -5.63,2.81 -11.26,6.56 -16.89,12.2 -15.02,13.14 -26.28,34.72 -31.91,56.31l-64.75 273.08c-7.51,31.9 0.94,59.12 19.7,66.63 98.54,39.42 254.31,24.4 407.29,-39.42l2.8 297.48c0,36.6 24.4,53.49 52.56,39.42l179.24 -103.23c28.15,-15.02 51.61,-56.3 51.61,-92.91l-5.63 -302.17 30.97 -13.14c264.64,-212.09 437.31,-560.24 432.62,-883.06 -3.76,-329.39 -144.52,-472.04 -472.03,-477.66z"/>
  </g>
 </g>
</svg>
