<?xml version="1.0" encoding="UTF-8"?>
<!DOCTYPE svg PUBLIC "-//W3C//DTD SVG 1.1//EN" "http://www.w3.org/Graphics/SVG/1.1/DTD/svg11.dtd">
<!-- Creator: CorelDRAW 2017 -->
<svg xmlns="http://www.w3.org/2000/svg" xml:space="preserve" width="12in" height="12in" version="1.1" style="shape-rendering:geometricPrecision; text-rendering:geometricPrecision; image-rendering:optimizeQuality; fill-rule:evenodd; clip-rule:evenodd"
viewBox="0 0 12000 12000"
 xmlns:xlink="http://www.w3.org/1999/xlink">
 <defs>
  <style type="text/css">
   <![CDATA[
    .fil0 {fill:#FEFEFE}
   ]]>
  </style>
 </defs>
 <g id="Layer_x0020_1">
  <metadata id="CorelCorpID_0Corel-Layer"/>
  <g id="_2516597678560">
   <g>
    <path class="fil0" d="M5998.89 448.58c-3126.28,0 -5661.37,2534.53 -5661.37,5661.37 0,2501.44 1622.16,4623.47 3871.59,5372.16 282.84,52.5 386.72,-122.81 386.72,-272.34 0,-135 -5.25,-580.97 -7.69,-1054.03 -1575,342.47 -1907.34,-667.97 -1907.34,-667.97 -257.53,-654.37 -628.59,-828.37 -628.59,-828.37 -513.75,-351.37 38.72,-344.06 38.72,-344.06 568.41,39.84 867.84,583.41 867.84,583.41 504.94,865.31 1324.41,615.19 1647.47,470.63 50.81,-365.91 197.53,-615.75 359.44,-757.13 -1257.47,-142.97 -2579.44,-628.5 -2579.44,-2797.78 0,-618.09 221.25,-1123.13 583.41,-1519.69 -58.87,-142.5 -252.66,-718.31 54.75,-1498.13 0,0 475.31,-152.16 1557.19,580.31 451.68,-125.53 936.09,-188.62 1417.3,-190.78 480.94,2.16 965.63,65.06 1418.16,190.59 1080.56,-732.47 1555.31,-580.31 1555.31,-580.31 308.16,779.72 114.37,1355.63 55.59,1498.13 363,396.56 582.66,901.59 582.66,1519.69 0,2174.43 -1324.41,2653.12 -2585.06,2793.37 203.16,175.69 384.09,520.31 384.09,1048.41 0,757.5 -6.56,1367.16 -6.56,1553.63 0,150.66 102,327.19 388.87,271.59 2248.13,-749.44 3868.41,-2870.81 3868.41,-5371.31 -0.09,-3126.66 -2534.91,-5661.28 -5661.47,-5661.28l0 -0.09z"/>
    <path class="fil0" d="M2481.77 8576.98c-12.47,28.13 -56.72,36.56 -97.03,17.34 -41.25,-18.37 -64.22,-56.72 -50.91,-84.94 12.19,-29.06 56.53,-37.03 97.5,-17.63 41.25,18.47 64.69,57.19 50.34,85.31l0.09 -0.09zm229.31 255.85c-26.91,25.03 -79.69,13.41 -115.5,-26.25 -37.13,-39.37 -44.06,-92.16 -16.59,-117.56 27.94,-24.94 79.13,-13.13 116.25,26.25 36.94,39.94 44.25,92.25 15.94,117.66l-0.09 -0.09zm223.31 325.97c-34.69,24.19 -91.5,1.59 -126.56,-48.75 -34.69,-50.44 -34.69,-110.91 0.94,-135 34.97,-24.19 90.94,-2.34 126.56,47.53 34.5,51.09 34.5,111.56 -0.94,136.13l0 0.09zm305.72 315.09c-30.94,34.22 -97.13,25.03 -145.5,-21.56 -49.41,-45.66 -63.19,-110.63 -32.16,-144.75 31.5,-34.31 97.97,-24.75 146.63,21.56 49.41,45.56 64.31,110.63 31.22,144.66l-0.19 0.09zm421.87 182.91c-13.78,44.34 -77.34,64.5 -141.56,45.56 -64.03,-19.41 -105.94,-71.25 -92.81,-116.06 13.13,-44.72 77.16,-65.63 141.75,-45.47 64.03,19.31 105.94,70.87 92.63,115.97l-0 0zm463.41 33.84c1.59,46.69 -52.78,85.31 -120,86.25 -67.78,1.59 -122.63,-36.28 -123.28,-82.22 0,-47.16 53.25,-85.31 120.94,-86.63 67.22,-1.22 122.44,36.28 122.44,82.5l-0.09 0.09zm431.06 -73.31c8.06,45.47 -38.72,92.25 -105.56,104.72 -65.63,12.19 -126.56,-16.13 -135,-61.22 -8.06,-46.69 39.56,-93.47 105.19,-105.56 66.94,-11.53 126.94,15.94 135.37,62.16l0 -0.09zm0 0z"/>
   </g>
  </g>
 </g>
</svg>
