<?xml version="1.0" encoding="UTF-8"?>
<!DOCTYPE svg PUBLIC "-//W3C//DTD SVG 1.1//EN" "http://www.w3.org/Graphics/SVG/1.1/DTD/svg11.dtd">
<!-- Creator: CorelDRAW 2017 -->
<svg xmlns="http://www.w3.org/2000/svg" xml:space="preserve" width="11in" height="9in" version="1.1" style="shape-rendering:geometricPrecision; text-rendering:geometricPrecision; image-rendering:optimizeQuality; fill-rule:evenodd; clip-rule:evenodd"
viewBox="0 0 11000 9000"
 xmlns:xlink="http://www.w3.org/1999/xlink">
 <defs>
  <style type="text/css">
   <![CDATA[
    .fil1 {fill:none}
    .fil6 {fill:#FEFEFE}
    .fil7 {fill:#0072C6}
    .fil5 {fill:#02B0EF}
    .fil3 {fill:#90C63D}
    .fil2 {fill:#F3661F}
    .fil4 {fill:#FFC20F}
    .fil0 {fill:white}
   ]]>
  </style>
 </defs>
 <g id="Layer_x0020_1">
  <metadata id="CorelCorpID_0Corel-Layer"/>
  <path class="fil0" d="M1073.37 1098.36l6783.58 0 0 1574.02 585.03 0 0 -1727.24c0,-231.83 -118.5,-431.81 -376.09,-431.81l-7201.46 0c-212.85,0 -376.09,163.16 -376.09,376.09l0 4624.54c0,152.25 74.6,244.62 153.95,305.88 111.89,86.37 213.69,70.24 375.36,70.22 871.99,-0.13 1836.74,-17.8 2687.53,0.83 0,506.19 11.17,840.27 -419.13,986.07 -389.56,132 -850.4,113.02 -1278.68,124.1l-0 462.42 4902.39 0.58 -0.02 -460.5c-394.52,0 -940.55,-3.13 -1288.93,-130.9 -405.63,-148.77 -400.72,-501.94 -399.05,-982.61l3220.22 0c-0.26,140.02 -9.32,521.61 5.43,635.32 142.63,-120.24 1156.56,-880.9 1188.54,-927.84l-1045.37 -817.24c-39.19,-29.09 -116.69,-85.65 -144.17,-110.22l-4.42 634.94 -7368.61 0 0 -4206.66z"/>
  <g>
   <path class="fil0" d="M8664.85 8104.81l598.96 0 0 181.08 -598.96 0 0 -181.08zm-2580.97 -4609.49l4043.55 -1.12 0 4318.1 -2326.2 0 0 -1685.45 -474.43 0c0,701.1 -2.08,1402.5 -0.27,2103.56 1.08,421.23 334.05,348.01 697.57,348.01l2103.33 0c492.67,0.05 473.6,-119.27 473.6,-585.04l0.2 -4722.16c0.54,-183.3 -51.08,-289.29 -187.41,-342.2 -107.3,-41.64 -2822.59,-19.6 -4330.1,-16.57l0.17 582.87z"/>
  </g>
  <path class="fil1" d="M2849.56 3153.33l0 -1584.84 1559.32 0m1655.96 3215.28l-1556.61 0m-99.35 0l-1559.32 0 0 -1531.09"/>
  <g>
   <polygon class="fil2" points="2849.56,3153.33 4408.88,3153.33 4408.88,1568.49 2849.56,1568.49 "/>
   <polygon class="fil3" points="4508.24,1568.49 4508.24,3153.33 6064.84,3153.33 6064.84,1568.49 "/>
   <polygon class="fil4" points="6064.84,3252.69 4508.24,3252.69 4508.24,4783.77 6064.84,4783.77 "/>
   <polygon class="fil5" points="4408.88,4783.77 4408.88,3252.69 2849.56,3252.69 2849.56,4783.77 "/>
  </g>
  <line class="fil1" x1="6083.72" y1="2912.44" x2="6083.88" y2= "3495.31" />
  <path class="fil6" d="M8441.98 5305.02l-7368.61 0 0 -4206.65 6783.58 0 0 1574.01 585.03 0 0 -1727.24c0,-231.83 -118.5,-431.81 -376.09,-431.81l-7201.46 0c-212.85,0 -376.09,163.16 -376.09,376.09l0 4624.54c0,152.25 74.6,244.63 153.95,305.88 111.89,86.37 213.7,70.24 375.36,70.22 871.99,-0.13 1836.74,-17.81 2687.52,0.83 0,506.19 11.17,840.27 -419.13,986.07 -389.56,132 -850.4,113.02 -1278.67,124.1l-0 462.42 4902.39 0.58 -0.02 -460.5c-394.52,0 -940.55,-3.14 -1288.93,-130.91 -405.63,-148.77 -400.72,-501.95 -399.05,-982.6l3220.22 0c-0.26,140.02 -9.32,521.61 5.43,635.32 142.63,-120.24 1156.56,-880.9 1188.54,-927.84l-1045.37 -817.23c-39.19,-29.09 -116.69,-85.66 -144.17,-110.22l-4.42 634.94z"/>
  <path class="fil6" d="M10127.43 3494.2l0 4318.1 -2326.2 0 0 -1685.45 -474.43 0c0,701.1 -2.08,1402.5 -0.27,2103.56 1.08,421.23 334.05,348.01 697.57,348.01l2103.33 0c492.67,0.05 473.6,-119.27 473.6,-585.04l0.2 -4722.16c0.54,-183.3 -51.08,-289.29 -187.41,-342.2 -107.3,-41.64 -2822.59,-19.61 -4330.1,-16.57l0.17 582.87 4043.55 -1.12zm-1462.58 4610.61l598.96 0 0 181.08 -598.96 0 0 -181.08z"/>
  <line class="fil1" x1="7801.23" y1="6126.85" x2="7801.23" y2= "5890.06" />
  <line class="fil1" x1="7856.95" y1="2672.38" x2="7857.75" y2= "2906.13" />
  <path class="fil7" d="M7856.95 2672.38l0 -1574.01 -6783.58 0 0 4206.65 7368.61 0 4.42 -634.94c27.49,24.57 104.98,81.13 144.17,110.22l1045.37 817.23c-31.98,46.94 -1045.91,807.59 -1188.54,927.84 -14.75,-113.71 -5.68,-495.3 -5.43,-635.32l-640.74 0 0 236.8 0 1685.45 2326.2 0 0 -4318.1 -4043.55 1.12 -0.17 -582.87c503.9,-1.02 1142.75,-4.15 1774.04,-6.32l-0.8 -233.75zm-1792.11 -1103.89l0 1584.84 -1556.61 0 0 -1584.84 1556.61 0zm-1556.61 1684.19l1556.61 0 0 1531.09 -1556.61 0 0 -1531.09zm-99.35 0l0 1531.09 -1559.32 0 0 -1531.09 1559.32 0zm0 -1684.19l0 1584.84 -1559.32 0 0 -1584.84 1559.32 0z"/>
  <polygon class="fil7" points="9263.81,8104.81 8664.85,8104.81 8664.85,8285.89 9263.81,8285.89 "/>
 </g>
</svg>
