<?xml version="1.0" encoding="UTF-8"?>
<!DOCTYPE svg PUBLIC "-//W3C//DTD SVG 1.1//EN" "http://www.w3.org/Graphics/SVG/1.1/DTD/svg11.dtd">
<!-- Creator: CorelDRAW 2017 -->
<svg xmlns="http://www.w3.org/2000/svg" xml:space="preserve" width="40in" height="12in" version="1.1" style="shape-rendering:geometricPrecision; text-rendering:geometricPrecision; image-rendering:optimizeQuality; fill-rule:evenodd; clip-rule:evenodd"
viewBox="0 0 40000 12000"
 xmlns:xlink="http://www.w3.org/1999/xlink">
 <defs>
  <style type="text/css">
   <![CDATA[
    .fil0 {fill:black}
    .fil2 {fill:#F0B82C}
    .fil1 {fill:#FEFEFE}
   ]]>
  </style>
 </defs>
 <g id="Layer_x0020_1">
  <metadata id="CorelCorpID_0Corel-Layer"/>
  <path class="fil0" d="M6617.29 2624.87c-12.49,-61.28 54.06,-88.15 116.72,-91.26 61.33,-3.05 99.25,14.57 148.63,31.98 94.75,33.41 181.2,62.97 280.26,91.44 388.4,111.63 841.04,158.21 1251.15,189.59 105.89,8.1 589.3,33.06 639.05,72.22l-237.03 37.73c25.18,9.2 92.98,15.99 126.35,20.81l383.62 60.49c92.09,16.16 436.41,74.45 483.16,113.09l-113.68 27.13c179.93,43.89 353.06,96.7 520.37,158.61 58.4,21.61 453.05,161.69 499.45,185.87 -14.39,-20.17 -42.75,-37.87 -62.48,-56.56 -11.97,-11.34 -20.05,-16.65 -33.43,-28.05l-157.26 -136.81c-24.23,-20.39 -40.46,-33.31 -64.28,-53.93 -20.87,-18.06 -42.86,-38.07 -63.45,-55.26 -25.01,-20.87 -111.44,-91 -126.52,-110.72 -41.05,6.31 -103.15,55.91 -141.26,67.31 -21.19,6.34 -45.89,-13.23 -64.95,-23.39l-423.93 -229.41c-80.05,-44 -57.62,-43.06 -134.13,-20.18 -99.79,29.83 -71.69,33.67 -146.39,1.04l-448.77 -196.75c-31.76,-14 -32.61,-15.52 -75.21,-13.39 -56.51,2.82 -115.43,4.83 -172.8,7.35 -127.1,5.57 -616.78,33.06 -701.69,29.14 35.7,-8 86.27,-27.36 126.61,-37.43 47.09,-11.76 94.48,-22.3 142.91,-31.49 100.26,-19.02 198.42,-29.7 297.98,-35.29 289.39,-16.25 724.62,77.45 1015.31,130.17 697.82,126.57 884.01,94.48 1422,507.4l263.85 201.51c55.78,40.63 112.55,87.17 156.33,160.27 39.62,66.16 68.4,187.91 3.54,233.02 -65,-164.33 -288.37,-170.27 -297.03,-161.33 -30.33,37.07 40.39,148.84 60.56,173.47 37.31,45.57 79.48,72.76 134.08,100.6 146.37,74.62 461.85,190.46 637.7,264.25 32.26,13.54 268.67,115.04 299.83,138.7 6.12,4.65 3,2.15 8.89,8.23 55.8,15.59 119.7,93.07 153.6,159.39 56.78,111.11 80.07,274.96 66.96,402.3 -2.74,26.61 0.65,39.78 -22.6,50.93 -56.7,27.19 -255.89,104.79 -281.43,128.38 9.19,12.88 2.59,7.44 19.38,15.04 126.46,57.19 242.23,-32.33 256.23,38.43 5.21,26.31 3.11,78.88 0.77,106.23 -8.46,98.92 -19.48,99.1 -122.61,116.88 -53.07,9.15 -203.89,16.56 -178.54,71.46 27.26,30.83 172.15,36.7 221.91,37.48 4.45,26.92 -15.29,170.77 -65.05,190.24 -78.25,30.63 -166.43,32.45 -249.68,36.48 32.78,104.27 145.23,69.92 204.61,89.25 -5.58,41.68 -165.15,223.43 -204.65,213.85 -14.68,-3.56 -46.48,-22.09 -54.91,-27.98 -29.62,-20.71 -56.66,-57.5 -73.14,-103.34 -45.85,-127.48 -12.21,-457.94 6.77,-587.19 30.4,-207.07 84.2,-332.2 225.49,-435.98 74.38,-54.63 87.27,-40.91 90.31,-83.33 4.57,-63.78 142.06,-128.51 131.36,-203.74 -8.34,-58.65 -91.17,-28.89 -120.4,-35.26 -30,13.02 -63.24,55.71 -94.63,72.58 -63.16,-82.93 -31.01,-75.84 -92.11,-78.15 -35.69,-1.35 -267.3,-18.85 -282.87,-11.71 -18.09,8.31 -34.44,58.18 -86.64,80.43 -23.39,-10.85 -12.82,-21.64 -83.05,-38.35l-86.79 -13.97c-8.81,-2.66 -4.45,-0.97 -10.16,-5.06 -52.25,1.99 -107.74,-27.72 -242.02,-4.3 23.87,34.29 117.06,44.82 179.46,193.28 10.51,25.01 5.75,15.2 56.46,31.95 75.73,25.01 116.4,42.31 177.89,92.92 134.92,111.03 185.89,386.12 132.51,582.07 -104.39,383.24 -642.47,535.71 -997.58,509.78 -109.4,-7.98 -182.96,-37.28 -276.3,-68.3 -85.72,-28.49 -177.9,-58.65 -267.39,-81 -186.54,-46.58 -391.36,-93.35 -611.62,-60.74 -237.66,35.19 -382.37,166.7 -457.9,309.42 -76.56,144.68 -126.47,367.78 -116.93,570.1 52.09,-14.54 101.69,-46.42 161.87,-64.25 118.58,-35.15 235.63,-31.69 349.12,11.32 61.88,23.45 124.62,64.22 136.73,68.27l-74.99 -126.87c165.99,-48.04 379.1,169.06 445.19,204.09 22.19,-50.53 26.65,-347.87 313.7,-526.7 134.06,-83.51 306.06,-138.77 465.75,-152.17 231.69,-19.44 622.16,-50.14 814.83,-133 49.4,58.64 131,127.17 224.85,139.45 41.65,124.41 -23.06,245.82 -107.48,328.93 -65.19,64.19 -193.68,174.78 -289.93,196.13 7.2,-18.5 14.34,-22.74 24.64,-39.76 55.78,-92.17 146.98,-246.39 105.83,-355.3 -49.48,-131 -274.45,-118.42 -428.01,-98.69 -12.08,4.67 -24.21,50.57 -37.59,79.02 -72.54,154.2 -255.4,387.57 -409.68,434.9 6.48,-22.98 24.65,-55.63 35.63,-82.98 30.04,-74.76 71.78,-203.17 74.81,-283.81 4.35,-115.38 -78.84,-76.16 -158.83,-49.69 -183.98,60.87 -335.44,193.3 -404.64,370.62 -21.73,55.68 -37.36,128.26 -29.3,201.46 12.35,112.14 54.54,132.11 90.38,179.36 -29.44,52.8 -174.32,186.58 -261.81,212.45 -78.93,23.34 -133.11,-3.26 -179.7,-34.58 -42.73,-28.73 -84.19,-69.48 -125,-107.29 -135.98,-125.99 -260.54,-217.34 -468.93,-200.01 -53.25,4.43 -172,23.55 -209.3,48.9 -20.63,50.56 57.31,297.02 89.97,342.5 81.68,-7.38 122.51,-29.03 211.57,-18.54 223.4,26.32 197.6,201.23 518.8,143.13 130.83,-23.67 254.78,-83.74 351.14,-148.74 79.14,-53.38 133.55,-100.98 198.33,-165.31 16.82,-16.7 42.31,-49.88 60,-58.92 74.13,153.69 -49.82,301.25 -132.85,425.06 -10.96,16.33 -22.93,36.95 -34.4,50.55 51.7,23.13 170.7,24.76 239,14.82 280.87,-40.89 522.64,-286.49 573.98,-309.26 14.34,103.23 21.34,127.26 -16.94,212.36 -27.3,60.69 -63.8,110.93 -97.81,156.36 13.33,10.58 159.93,42.61 187.62,46.86 1.84,91.14 -158.42,356.13 -203.99,418.01 -10.53,14.3 -21.16,25.65 -31.38,39.4 -23.21,31.21 -41.77,52.1 -65.65,80.68 -25.82,30.9 -109.67,118.48 -168.26,126.52l-20.67 -89.39c-8.57,3.1 -55.04,43.65 -71.54,55.43 -28.35,20.22 -52.67,35.29 -84.49,53.88 -149.08,87.13 -451.24,224.02 -618.24,223l38.63 -152.76c-94.09,30.57 -525.69,198.97 -607.25,158.85l60.48 -162.29c-84.71,27.83 -331.43,114.3 -412.09,66.37l80.65 -220.86 -9.23 -3.42c-21.74,-5.48 -279.33,-12.1 -301.65,-12.85 -31.49,-158.49 -91.43,-262.06 -179.69,-357.77 -86.71,-94.04 -178.01,-166.24 -282.71,-226.54 -104.24,-60.04 -209.56,-104.76 -343.17,-141.67 -87.22,-24.09 -320.84,-64.4 -419.76,-45.11 51.26,21.69 103.1,36.78 160.08,59.34 102.89,40.74 404.65,168.85 452.57,228.91 -52.85,8.22 -115.19,9.75 -170.07,15.37 -59.77,6.11 -119.39,14.05 -178.85,22.64 -326.71,47.19 -646.41,140.04 -955.55,243.99 -190.85,64.17 -98.48,57.45 -281.83,20.42 -272.65,-55.06 -559.7,-128.97 -834.5,-183.73 11.37,-7.88 162.99,-60.48 192.44,-72.43 54.44,-22.1 138.52,-64.94 189.95,-78.89 6.21,-15.98 7.67,-9.49 -18.62,-15.06l-197.83 -50.4c-74.86,-20.72 -150.74,-44.15 -223.08,-67.41 -105.36,-33.88 -334.91,-112.37 -419.27,-165.98 213.32,8.09 838.64,-58.29 1032.72,-129.79 -292.64,-98.7 -499.96,-171.91 -795.07,-290.59 -133.47,-53.68 -672.3,-281.96 -728.46,-380.44 34.63,1.59 95.18,16.3 132.11,22.53 241.65,40.73 843.2,88.76 1025.3,28.84 -198.13,-58.82 -283.72,-85.61 -476.02,-157.72 -155.02,-58.13 -308,-120.01 -459.31,-182.59 -457.26,-189.09 -1592.21,-703.02 -1885.44,-1062.07 -36.37,-44.54 -31.38,-41.41 -18.06,-129.73 6.84,-45.37 14.63,-86.45 23.47,-130.15 18.83,-93.06 93.05,-454.93 140.98,-489.73l357.93 325.2c15.09,13.5 31.61,27.35 46.04,39.17 19.82,16.24 28.94,26.42 45.73,39.71l474.23 373.74c141.09,99.35 245.57,177.3 406.29,263.76 48.75,26.22 167.66,92.87 222.02,104.27 -10.23,-13.67 -21.19,-23.12 -30.53,-34.62 -206.12,-253.98 -660.02,-1179.43 -677.56,-1470.1 85.87,128.82 192.77,266.6 289.11,374.2 203.28,227.04 426.76,452.66 657.84,642.19 120.93,99.19 225.28,191.14 354.69,287.31l469 330.84c62.67,45.46 220.89,141.28 290.34,183.39 249.71,151.38 524.51,295.39 830.75,408.44 -3.93,-12.74 -175.45,-236.63 -201.01,-272.01 -181.82,-251.69 -412.5,-611.67 -556.19,-881.3 -114.32,-214.52 -220.85,-425.59 -321.93,-656.05 -50.54,-115.24 -97.09,-233.67 -140.83,-353.14 -28.61,-78.15 -110.14,-305.79 -124.02,-377.39 14.69,7.24 42.52,37.37 53.96,48.52 80.59,78.59 289.94,292.43 380.07,301.89 -16.87,-47.07 -41.39,-96.26 -60.15,-146.11 -95.21,-252.93 -322.64,-941.06 -284.43,-1143.39 33.83,-15.61 303.03,-42.28 361.89,-49.58 118.29,-14.67 235.51,-30.19 353.81,-43.69 21.14,286.39 191.83,684.39 382.16,898.93 30.74,34.65 72.73,71.74 105.29,94.37 19.82,13.78 35.52,24.95 59.57,37.97 19.59,10.6 45.46,20.59 64.1,30.93 -38.51,183.66 -23.49,454.51 0.19,660.08 25.87,224.57 71.67,452.34 182.2,619.93 2.35,-276.12 157.44,-857.18 336.13,-935.91 -5.26,26.21 -17.69,54.37 -26.51,83.63 -20.54,68.19 -41.78,183.35 -52.42,255.24 -107.51,726.15 2.14,1603.7 449.28,2199.42 33.33,44.41 65.39,85.87 100.56,127.9l104.2 113.42c-4.3,-32.54 -27.13,-93.96 -37.18,-130.62 -128.17,-467.55 -162.96,-1038.96 -64.75,-1506.6 28.76,-136.94 102.26,-333.33 168.65,-411.89 4.43,34.44 1.08,82.96 3.55,121.78 2.78,43.74 7.35,88.28 13.09,132.3 11.13,85.34 27.35,171.74 46.15,255.23 36.39,161.55 79.08,311.78 130.15,465.42 74.29,223.54 152.31,416.8 257.43,620.93 35.8,69.52 97.19,155.07 107.88,176.62l16.81 -0.5c5.63,-263.91 35.81,-441.53 142.85,-634.48 342.18,-616.79 1343.24,-475.5 1826.97,-237.43 -75.02,-103.24 -784.01,-364.1 -1002.73,-422.72 -32.28,-8.65 -147,-29.85 -165.52,-39.2 199.81,-25.15 958.65,76.12 1187.82,118.87 63.08,11.76 125.07,24.51 185.63,38.68 60.68,14.2 120.87,34.57 177.42,47.04 -45.74,-51.53 -322.49,-149.51 -415.33,-182.55 -145.05,-51.61 -299.01,-96.39 -452.63,-137.06 -210.57,-55.75 -496.46,-122.34 -718.05,-154.3l-248.23 -35.15c197.15,-48.76 1161.95,23.75 1414.44,49.39 72.55,7.37 147.74,16.74 219.05,27.74 69.96,10.79 147.29,29.72 213.88,38 -69.63,-99.71 -912.02,-258.43 -1073.82,-287.83 -326.63,-59.35 -871.21,-131.59 -1199.57,-126.04 86.67,-60.99 858.67,-100.75 1008.85,-103.45 160.04,-2.88 415.28,-3.71 566.72,35.22 67.15,17.26 34.01,24.3 87.85,-15.48 41.99,-31.02 126.67,-83.93 181.75,-103.04 -24.98,-24.7 -244.11,-91.8 -271.81,-100 -291.69,-86.42 -622.47,-110.69 -926.46,-145.06 -307.42,-34.75 -597.76,-91.55 -805.64,-304.13 -47.6,-48.67 -138,-163.17 -166.08,-241.74 133.11,-1.77 607.85,316.72 717.04,310.73 -5.78,-107.7 -10.91,-188.22 -5.12,-290.8 21.26,1.94 66.6,12.74 84.08,20.18 39.58,16.83 32.02,41.97 30.31,81.15l115.66 34.46 -84.21 66.81c9.91,54.84 42.98,126.48 78.69,153.45 56.51,42.69 119.87,-7.39 161.03,-41.83 20.93,-17.51 111.54,-107.01 120.3,-111 15.99,-7.28 152.24,41.26 159.83,47.52 -12.58,31.92 -42.52,71.56 -51.91,103.84l426.17 30.82c12.51,-10.36 50.02,-73.28 52.3,-89.2 1.76,-17.94 6.87,-21.91 10.86,-37.5 -71.37,-5.06 -137.28,-15.11 -201.72,-33.43 -42.94,-12.2 -113.28,-35.32 -153.84,-57.74 -13.12,-7.25 -9.3,-4.88 -17.17,-13.19 -146,-44.65 -281.06,-120.44 -389.84,-188.81 -142.18,-89.35 -251.14,-97.67 -459,-95.03 -218.43,2.78 -278.01,-7.14 -466.16,-85.1 -68.01,-28.18 -138.83,-48.94 -216.33,-64.84 -76.5,-15.69 -158.22,-33.33 -210.79,-68.35l1.91 26.7c16.09,11.05 100.94,127.76 114.54,149.6 -22.04,-7.82 -48.72,-21.19 -74.05,-30.54 -128.46,-47.39 -284.54,-93.54 -420.63,-112.2 -30.85,-4.23 -64,-7.67 -97.54,-5.99 -7.44,0.37 -95.35,13.24 -95.65,13.44l122.52 156.11c-86.83,2.9 -325.11,-86.24 -400.2,-115.25 -229.97,-88.88 -492.28,-244.01 -652.44,-427.65 -41.43,-47.5 -84.85,-106.17 -116.69,-168.35 -16.85,-32.91 -29.83,-65.31 -43.65,-102.13 -23.37,-62.28 -14.83,-50.64 -22.27,-111.16zm1995.95 -84.15c-33.67,-105.56 16.21,-229.43 97.11,-260.89 146.35,-56.91 503.42,140.78 672.47,212.98 22.17,9.47 43.16,18.2 64.17,26.44l62.06 26.81c-219.05,17.24 -700.35,-292.19 -848.62,-106.01 -34.11,42.84 -25.06,61.87 -47.19,100.67zm-3178.29 -13.74l28.33 210.15c-67.33,19.61 -140.03,33.19 -207.32,50.63 -634.04,164.29 -1355.27,496.26 -1877.69,867.59 -91.67,65.16 -476.78,339.54 -543.3,426.99 21,28.87 133.8,102.78 169.88,134.93 -0.43,46.35 -59.52,294.13 -72.67,359.24 -36.3,179.79 -77.52,363.56 -101.99,545.67 -13.03,96.94 4.37,92.17 68.3,152.65 39.56,37.41 86,71.26 127.39,103.93 45.4,35.82 86.68,67.52 133.32,101.72 263.3,193.06 540.28,387.31 830.71,553.56 70,40.07 148.41,84.03 223.67,115.97 14.7,6.24 69.41,25.87 78.67,32.5 -26.38,18.44 -180.87,61.07 -231.78,77.72 -1.33,0.44 -12.8,4.11 -14.71,4.93 -7.94,3.41 2.54,-1.94 -7.36,3.46 -13.09,7.15 -5.5,2.28 -10.55,7.2 17.76,19.98 40.66,31.42 62.79,46.89 21.09,14.74 40.48,31.62 62,45.93 23.63,15.73 38.18,24.57 63.02,44.58 20.9,16.83 42.39,27.57 63.88,43.48 25.13,18.62 40.77,28.22 63.2,44.31l190.85 131.42c132.18,80.31 259.63,170.76 395.61,244.55l147.04 73c-144.21,34.54 -276.21,75.89 -424.13,61.13 21.09,27.42 56.61,59.65 82.59,82.61 185.4,163.9 381.72,298.55 614.07,389.6 36.7,14.38 86.4,26.97 119.95,42.75 -19.07,16.08 -85.67,25.68 -109.69,31.79 -31.72,8.07 -84.81,12.95 -108.58,31.34 9.9,214.37 1019.37,479.62 1216.88,534.56 71.43,19.87 152.48,40.08 226.66,56.09 51.07,11.02 67.8,25.5 114.91,0.67 319.57,-168.4 1012.56,-363.25 1399.23,-428.07 139.56,-23.4 176.89,-37.45 246.74,36.22 78.85,83.16 200.43,274.14 223.92,420.43l305.73 11.18c-5.55,62.75 -77.57,176.88 -74.25,233.46 104.54,36.61 270.65,-6.34 392.11,-27.17 -1.87,39.06 -32.25,97.24 -27.15,128.51 137.05,43.54 445.64,-77.05 582,-123.18 -2.47,38.73 -30.58,112.88 -27.13,142.25 91.34,58.98 534.72,-131.34 655.59,-187.89 70.15,-32.82 125.74,-66 187.65,-100l-17.12 89.91c62.32,-0.32 208.72,-128.28 242.78,-160.45 69.99,-66.11 138.45,-143.81 186.13,-212.54 93.89,-135.32 222.45,-355.7 220.88,-537.32 -41,-9.33 -82.11,-29.76 -121,-46.41l-18.89 -10.57c18.07,-43.23 33.56,-66.49 47.22,-122.12 10.89,-44.32 16.54,-93.55 13.72,-144.54 -10.09,-183.11 -94.08,-109.64 -194.05,-50.98 -112.34,65.93 -372.28,233.02 -516.72,236.14 6.5,-40.2 154.98,-182.98 76.4,-505 -5.3,-21.72 -19.15,-58.32 -20.43,-77.64 239.54,-52.13 418.3,-225.13 536.98,-405.01 10.56,-16 20.73,-27.04 30.83,-44.04 26.75,-45 65.28,-92.86 80.39,-144.94 74.28,-0.72 241.68,12.22 282,49.19 20.5,38.69 -116.15,303.48 -145.06,358.19 -12.58,23.81 -56.32,98.11 -60.39,114.2 287.03,-18.81 509.65,-252.22 597.96,-404.95 29.73,-51.42 52.65,-99.41 74.8,-157.78 7.63,-20.11 5.98,-23.35 21.3,-34.64l110.33 -80.35c61.97,-51.63 229.95,-195.18 239.7,-253.14l-54.14 -24.72c89.19,-20.99 83.2,-50.33 107.67,-127.06 12.92,-40.54 44.66,-134.28 48.93,-172.94l-48.8 -23.88c63.52,-48.04 89.95,-19.12 97.13,-142.13 3.35,-57.35 8.62,-167.35 0.5,-223.95l-41.38 -21.05c67.88,-56.88 51.07,-19.59 56.56,-195.28 2.56,-81.87 3.16,-164.26 -20.54,-248.46 -90.12,-320.21 -485.84,-461.76 -773.99,-550.32 -59.19,-18.19 -136.94,-41.17 -199.03,-53.02 -30.1,-336.5 -69.69,-540.31 -344.96,-722.28l-200.59 -140.73c-34.66,-24.71 -61.9,-46 -99.97,-68.05 -257.25,-148.98 -539.5,-234.46 -832.72,-306.9 -81.99,-20.26 -344.79,-198.58 -420.52,-245.2 -228.68,-140.78 -648.11,-420.81 -942.37,-364.81 -146.5,27.88 -230.48,121.75 -287.99,237.67 -18.52,37.32 -30.56,82.14 -51.51,117.56l-325.34 -44.34c-107.45,-12.51 -226.55,-22.69 -340.46,-28.93 -235,-12.86 -472.84,-19.12 -712.44,-16.39 -464.75,5.3 -1065.81,30.11 -1520.21,150.71z"/>
  <path class="fil1" d="M8817.11 6595.36c-137.77,-24.04 -324.6,-284.72 -410.47,-410.4 -49.57,-72.54 -65.39,-110.66 -104.18,-171.76 -10.26,11.72 -9.98,38.52 -11,53.75 -10.91,163.07 24.26,297.4 49.36,451.61 -70.71,-13.22 -125.18,-166.6 -169.14,-204.98 -32.63,96.18 120.88,802.26 160.52,931.24 -92.16,17.74 -287.91,-221.27 -351.46,-300.76 -238.04,-297.68 -645.74,-952.19 -741.48,-1319.06 -48.81,64.79 -31.21,230.94 -41.26,292.62 -68.04,-10.26 -409.29,-392.24 -499.94,-489.68l-50.31 -55.51c-2.3,-2.48 -8.38,-8.46 -10.18,-9.94 -7.72,-6.33 -0.74,-1.82 -9.98,-6.64 18.95,86.11 120.78,262.39 164.27,336.43 122.11,207.86 243.08,399.41 377.86,600.41l195.5 285.66c-150.66,-14.73 -791.29,-281.61 -933.4,-340.93 -151.43,-63.21 -304.04,-126.33 -450.3,-194.94 -74.79,-35.09 -148.83,-67.55 -221.42,-102.29 -89.05,-42.62 -126.62,-65.61 -208.67,-108.7l152.62 255.89c-127.22,0.54 -625.44,-156.91 -783.37,-201.7 -32.96,-9.35 -74.68,-26.42 -104.85,-31.07 54.54,77.65 453.34,271.51 557.66,322.31 132.11,64.34 891.05,399.69 1012.64,425.66 -51.77,52.76 -582.32,140.76 -691.11,152.17 31.59,60.34 595.62,304.39 724.17,357.74l255.73 101.54c-83.43,109.21 -530.23,195.38 -701.42,220.27 38.49,65.86 136.18,103.78 217.53,139.63l-34.14 17.38c-51.43,13.95 -135.51,56.79 -189.95,78.89 -29.45,11.95 -181.07,64.55 -192.44,72.43 274.8,54.76 561.85,128.67 834.5,183.73 183.36,37.03 90.99,43.75 281.83,-20.42 309.13,-103.95 628.84,-196.8 955.55,-243.99 59.46,-8.59 119.07,-16.52 178.85,-22.64 54.88,-5.62 117.22,-7.15 170.07,-15.37 -47.92,-60.07 -349.68,-188.17 -452.57,-228.91 -56.98,-22.57 -108.81,-37.65 -160.08,-59.34 98.92,-19.29 332.54,21.02 419.76,45.11 133.61,36.91 238.94,81.63 343.17,141.67 104.7,60.3 196,132.51 282.71,226.54 88.26,95.71 148.2,199.28 179.69,357.77 22.31,0.74 279.9,7.37 301.65,12.85l9.23 3.42 -80.65 220.86c80.65,47.93 327.38,-38.54 412.09,-66.37l-60.48 162.29c81.56,40.12 513.16,-128.28 607.25,-158.85l-38.63 152.76c166.99,1.02 469.16,-135.87 618.24,-223 31.82,-18.59 56.15,-33.66 84.49,-53.88 16.5,-11.77 62.98,-52.32 71.54,-55.43l20.67 89.39c58.58,-8.04 142.43,-95.62 168.26,-126.52 23.89,-28.58 42.44,-49.46 65.65,-80.68 10.22,-13.75 20.85,-25.1 31.38,-39.4 45.57,-61.88 205.83,-326.87 203.99,-418.01 -27.69,-4.25 -174.29,-36.28 -187.62,-46.86 34.02,-45.43 70.52,-95.67 97.81,-156.36 38.28,-85.11 31.28,-109.13 16.94,-212.36 -51.34,22.77 -293.11,268.37 -573.98,309.26 -68.29,9.94 -187.3,8.31 -239,-14.82 11.47,-13.59 23.44,-34.21 34.4,-50.55 83.03,-123.81 206.98,-271.37 132.85,-425.06 -17.68,9.04 -43.17,42.22 -60,58.92 -64.79,64.33 -119.2,111.93 -198.33,165.31 -96.36,65 -220.31,125.07 -351.14,148.74 -321.2,58.1 -295.4,-116.81 -518.8,-143.13 -89.06,-10.49 -129.89,11.16 -211.57,18.54 -32.66,-45.48 -110.61,-291.94 -89.97,-342.5 37.31,-25.35 156.06,-44.47 209.3,-48.9 208.39,-17.33 332.95,74.02 468.93,200.01 40.8,37.81 82.27,78.56 125,107.29 46.6,31.32 100.78,57.92 179.7,34.58 87.49,-25.87 232.37,-159.66 261.81,-212.45 -35.84,-47.26 -78.03,-67.22 -90.38,-179.36 -8.06,-73.2 7.57,-145.78 29.3,-201.46 69.2,-177.32 220.66,-309.75 404.64,-370.62 79.99,-26.46 163.17,-65.69 158.83,49.69 -3.04,80.64 -44.78,209.06 -74.81,283.81 -10.99,27.35 -29.16,60 -35.63,82.98 154.28,-47.33 337.14,-280.7 409.68,-434.9 13.39,-28.45 25.51,-74.35 37.59,-79.02 153.56,-19.73 378.52,-32.31 428.01,98.69 41.14,108.91 -50.06,263.14 -105.83,355.3 -10.3,17.02 -17.44,21.26 -24.64,39.76 96.25,-21.36 224.74,-131.95 289.93,-196.13 84.42,-83.11 149.13,-204.52 107.48,-328.93 -93.85,-12.28 -175.45,-80.81 -224.85,-139.45 -192.67,82.86 -583.14,113.57 -814.83,133 -159.69,13.4 -331.69,68.66 -465.75,152.17 -287.06,178.82 -291.51,476.17 -313.7,526.7 -66.09,-35.03 -279.2,-252.14 -445.19,-204.09l74.99 126.87c-12.11,-4.05 -74.85,-44.82 -136.73,-68.27 -113.49,-43.01 -230.54,-46.47 -349.12,-11.32 -60.18,17.83 -109.78,49.71 -161.87,64.25 -9.54,-202.31 40.37,-425.42 116.93,-570.1 75.53,-142.72 220.24,-274.22 457.9,-309.42 220.26,-32.62 425.09,14.15 611.62,60.74 89.49,22.35 181.67,52.51 267.39,81 93.33,31.02 166.89,60.31 276.3,68.3 355.11,25.93 893.2,-126.54 997.58,-509.78 53.38,-195.95 2.41,-471.05 -132.51,-582.07 -61.49,-50.61 -102.16,-67.91 -177.89,-92.92 -50.72,-16.75 -45.95,-6.94 -56.46,-31.95 -62.41,-148.45 -155.59,-158.99 -179.46,-193.28 134.28,-23.43 189.76,6.29 242.02,4.3l19.62 2.2c-25.06,-73.94 -119.42,-128.94 -186.04,-152.28 -118.75,-41.6 -238.98,-38.81 -257.91,-47.76l97.22 -61.77c-47.13,-80.11 -266.98,-108 -394.28,-108.33 18,-23.82 57.46,-27.2 77.43,-49.98 -42.31,-75.06 -206.25,-83.47 -293.66,-97.96 -81.78,-13.56 -72.99,-37.63 -96.43,-28.22 -2.28,15.92 -39.79,78.83 -52.3,89.2l-426.17 -30.82c9.39,-32.29 39.33,-71.92 51.91,-103.84 -7.59,-6.26 -143.83,-54.8 -159.83,-47.52 -8.77,3.99 -99.37,93.49 -120.3,111 -41.16,34.43 -104.52,84.52 -161.03,41.83 -35.7,-26.97 -68.77,-98.61 -78.69,-153.45l84.21 -66.81 -115.66 -34.46c1.7,-39.18 9.27,-64.32 -30.31,-81.15 -17.48,-7.43 -62.81,-18.24 -84.08,-20.18 -5.79,102.57 -0.66,183.1 5.12,290.8 -109.19,6 -583.93,-312.5 -717.04,-310.73 28.08,78.57 118.48,193.07 166.08,241.74 207.88,212.58 498.22,269.38 805.64,304.13 303.99,34.36 634.77,58.64 926.46,145.06 27.7,8.2 246.83,75.3 271.81,100 -55.08,19.11 -139.76,72.02 -181.75,103.04 -53.85,39.78 -20.7,32.74 -87.85,15.48 -151.44,-38.93 -406.69,-38.1 -566.72,-35.22 -150.17,2.7 -922.18,42.46 -1008.85,103.45 328.37,-5.56 872.94,66.69 1199.57,126.04 161.81,29.4 1004.2,188.13 1073.82,287.83 -66.59,-8.28 -143.93,-27.21 -213.88,-38 -71.31,-11 -146.5,-20.37 -219.05,-27.74 -252.49,-25.65 -1217.28,-98.16 -1414.44,-49.39l248.23 35.15c221.59,31.95 507.48,98.55 718.05,154.3 153.62,40.67 307.58,85.44 452.63,137.06 92.85,33.04 369.59,131.02 415.33,182.55 -56.55,-12.46 -116.74,-32.83 -177.42,-47.04 -60.56,-14.17 -122.54,-26.92 -185.63,-38.68 -229.17,-42.74 -988.01,-144.02 -1187.82,-118.87 18.52,9.35 133.24,30.55 165.52,39.2 218.72,58.62 927.72,319.48 1002.73,422.72 -483.74,-238.08 -1484.8,-379.37 -1826.97,237.43 -107.04,192.95 -137.22,370.57 -142.85,634.48l-16.81 0.5z"/>
  <path class="fil2" d="M6156.89 7591.31l34.14 -17.38c-81.35,-35.85 -179.04,-73.78 -217.53,-139.63 171.19,-24.89 617.99,-111.06 701.42,-220.27l-255.73 -101.54c-128.55,-53.35 -692.58,-297.4 -724.17,-357.74 108.79,-11.41 639.35,-99.42 691.11,-152.17 -121.59,-25.97 -880.52,-361.31 -1012.64,-425.66 -104.32,-50.81 -503.13,-244.67 -557.66,-322.31 30.17,4.65 71.88,21.72 104.85,31.07 157.93,44.8 656.15,202.25 783.37,201.7l-152.62 -255.89c82.05,43.1 119.62,66.09 208.67,108.7 72.58,34.74 146.63,67.2 221.42,102.29 146.26,68.61 298.87,131.73 450.3,194.94 142.11,59.32 782.74,326.2 933.4,340.93l-195.5 -285.66c-134.78,-201 -255.75,-392.55 -377.86,-600.41 -43.49,-74.04 -145.32,-250.31 -164.27,-336.43 9.24,4.82 2.25,0.31 9.98,6.64 1.8,1.48 7.88,7.46 10.18,9.94l50.31 55.51c90.65,97.44 431.9,479.43 499.94,489.68 10.05,-61.68 -7.55,-227.83 41.26,-292.62 95.74,366.87 503.43,1021.39 741.48,1319.06 63.56,79.48 259.3,318.49 351.46,300.76 -39.64,-128.97 -193.15,-835.06 -160.52,-931.24 43.96,38.38 98.43,191.77 169.14,204.98 -25.1,-154.22 -60.27,-288.54 -49.36,-451.61 1.02,-15.22 0.74,-42.02 11,-53.75 38.8,61.1 54.61,99.23 104.18,171.76 85.87,125.67 272.7,386.36 410.47,410.4 -10.69,-21.56 -72.08,-107.1 -107.88,-176.62 -105.13,-204.13 -183.15,-397.39 -257.43,-620.93 -51.07,-153.65 -93.76,-303.87 -130.15,-465.42 -18.8,-83.49 -35.03,-169.89 -46.15,-255.23 -5.74,-44.02 -10.31,-88.56 -13.09,-132.3 -2.47,-38.82 0.87,-87.34 -3.55,-121.78 -66.39,78.56 -139.89,274.95 -168.65,411.89 -98.21,467.63 -63.42,1039.05 64.75,1506.6 10.05,36.67 32.88,98.09 37.18,130.62l-104.2 -113.42c-35.17,-42.02 -67.23,-83.49 -100.56,-127.9 -447.13,-595.72 -556.78,-1473.26 -449.28,-2199.42 10.64,-71.89 31.88,-187.06 52.42,-255.24 8.81,-29.26 21.25,-57.42 26.51,-83.63 -178.69,78.73 -333.78,659.78 -336.13,935.91 -110.53,-167.59 -156.34,-395.37 -182.2,-619.93 -23.68,-205.57 -38.69,-476.42 -0.19,-660.08 -18.65,-10.33 -44.51,-20.32 -64.1,-30.93 -24.05,-13.02 -39.75,-24.19 -59.57,-37.97 -32.56,-22.63 -74.55,-59.72 -105.29,-94.37 -190.33,-214.55 -361.02,-612.55 -382.16,-898.93 -118.3,13.5 -235.52,29.03 -353.81,43.69 -58.86,7.3 -328.06,33.97 -361.89,49.58 -38.22,202.32 189.22,890.45 284.43,1143.39 18.76,49.85 43.28,99.04 60.15,146.11 -90.14,-9.46 -299.48,-223.3 -380.07,-301.89 -11.44,-11.15 -39.27,-41.28 -53.96,-48.52 13.88,71.6 95.41,299.23 124.02,377.39 43.74,119.47 90.28,237.9 140.83,353.14 101.09,230.46 207.61,441.53 321.93,656.05 143.69,269.63 374.37,629.6 556.19,881.3 25.56,35.39 197.07,259.27 201.01,272.01 -306.24,-113.05 -581.04,-257.06 -830.75,-408.44 -69.46,-42.11 -227.68,-137.93 -290.34,-183.39l-469 -330.84c-129.42,-96.17 -233.76,-188.12 -354.69,-287.31 -231.08,-189.53 -454.56,-415.15 -657.84,-642.19 -96.34,-107.6 -203.25,-245.38 -289.11,-374.2 17.54,290.67 471.44,1216.12 677.56,1470.1 9.34,11.5 20.3,20.95 30.53,34.62 -54.35,-11.4 -173.27,-78.04 -222.02,-104.27 -160.72,-86.46 -265.2,-164.41 -406.29,-263.76l-474.23 -373.74c-16.79,-13.3 -25.91,-23.47 -45.73,-39.71 -14.43,-11.82 -30.94,-25.67 -46.04,-39.17l-357.93 -325.2c-47.93,34.8 -122.15,396.68 -140.98,489.73 -8.84,43.69 -16.63,84.78 -23.47,130.15 -13.32,88.32 -18.31,85.2 18.06,129.73 293.24,359.05 1428.19,872.97 1885.44,1062.07 151.31,62.57 304.29,124.46 459.31,182.59 192.31,72.11 277.89,98.89 476.02,157.72 -182.09,59.93 -783.65,11.89 -1025.3,-28.84 -36.93,-6.23 -97.48,-20.94 -132.11,-22.53 56.16,98.48 594.98,326.77 728.46,380.44 295.11,118.68 502.43,191.88 795.07,290.59 -194.07,71.5 -819.4,137.87 -1032.72,129.79 84.36,53.61 313.91,132.1 419.27,165.98 72.35,23.26 148.22,46.69 223.08,67.41l197.83 50.4c26.3,5.56 24.83,-0.93 18.62,15.06z"/>
  <path class="fil2" d="M6617.29 2624.87l3.67 -7.43c31.74,-66.35 53.86,-54.66 115.32,-42.65 -10.51,29.75 -88.24,55.5 -25.14,177.36 49.15,94.91 159,187.71 238.32,251.7l105.39 77.47c12.05,8.64 21.5,12.67 34.14,21.71 130.35,93.18 491.55,279.9 641.04,290.26 0.3,-0.19 88.21,-13.06 95.65,-13.44 33.54,-1.69 66.69,1.76 97.54,5.99 136.09,18.67 292.17,64.81 420.63,112.2 25.33,9.34 52.01,22.71 74.05,30.54 -13.59,-21.85 -98.45,-138.55 -114.54,-149.6 0.11,3.97 0.31,5.75 -0.01,8.67 -0.08,0.72 -0.95,4.19 -1.2,3.53 -0.24,-0.63 -1.29,2.02 -1.82,3.08 -36.13,-44.3 -68.31,-101.28 -86.5,-174.26l230.92 89.71c364.55,133.44 438.44,88.26 772.51,148.38 181.68,32.7 327.68,93.02 466.53,162.4 46.66,23.31 379.06,203.8 407.41,246.19l-47.63 -12.26c7.87,8.31 4.06,5.94 17.17,13.19 40.56,22.43 110.91,45.54 153.84,57.74 64.44,18.31 130.35,28.37 201.72,33.43 -3.99,15.58 -9.1,19.56 -10.86,37.5 23.44,-9.41 14.65,14.67 96.43,28.22 87.41,14.49 251.35,22.9 293.66,97.96 -19.97,22.78 -59.43,26.16 -77.43,49.98 127.3,0.33 347.15,28.22 394.28,108.33l-97.22 61.77c18.93,8.95 139.16,6.16 257.91,47.76 66.63,23.34 160.99,78.34 186.04,152.28l-19.62 -2.2c5.7,4.09 1.34,2.4 10.16,5.06l86.79 13.97c70.23,16.71 59.66,27.5 83.05,38.35 52.19,-22.25 68.54,-72.13 86.64,-80.43 15.57,-7.15 247.17,10.35 282.87,11.71 61.1,2.31 28.95,-4.78 92.11,78.15 31.39,-16.87 64.62,-59.56 94.63,-72.58 -19.82,-48.24 -59.87,-85.96 -90.17,-115.22 -19.28,-18.61 -93.76,-83.87 -103.66,-99.25 37.5,5.74 117.96,47.15 153.32,67.25l50.23 26.67 -44.73 -66.2 30.65 7.21c-5.89,-6.07 -2.77,-3.58 -8.89,-8.23 -31.16,-23.66 -267.57,-125.16 -299.83,-138.7 -175.85,-73.79 -491.33,-189.63 -637.7,-264.25 -54.6,-27.83 -96.77,-55.03 -134.08,-100.6 -20.17,-24.63 -90.89,-136.4 -60.56,-173.47 8.66,-8.94 232.03,-3.01 297.03,161.33 64.86,-45.1 36.08,-166.85 -3.54,-233.02 -43.78,-73.1 -100.56,-119.64 -156.33,-160.27l-263.85 -201.51c-537.99,-412.92 -724.17,-380.83 -1422,-507.4 -290.69,-52.72 -725.91,-146.42 -1015.31,-130.17 -99.56,5.59 -197.72,16.26 -297.98,35.29 -48.43,9.19 -95.82,19.73 -142.91,31.49 -40.34,10.07 -90.91,29.43 -126.61,37.43 84.91,3.91 574.59,-23.57 701.69,-29.14 57.36,-2.52 116.28,-4.52 172.8,-7.35 42.6,-2.13 43.46,-0.62 75.21,13.39l448.77 196.75c74.7,32.63 46.61,28.8 146.39,-1.04 76.51,-22.87 54.08,-23.81 134.13,20.18l423.93 229.41c19.06,10.16 43.76,29.73 64.95,23.39 38.11,-11.4 100.21,-61 141.26,-67.31 15.08,19.71 101.51,89.84 126.52,110.72 20.59,17.18 42.58,37.2 63.45,55.26 23.81,20.61 40.05,33.54 64.28,53.93l157.26 136.81c13.38,11.41 21.46,16.71 33.43,28.05 19.73,18.69 48.09,36.39 62.48,56.56 -46.41,-24.19 -441.05,-164.26 -499.45,-185.87 -167.32,-61.91 -340.44,-114.72 -520.37,-158.61l113.68 -27.13c-46.74,-38.64 -391.07,-96.93 -483.16,-113.09l-383.62 -60.49c-33.37,-4.83 -101.17,-11.62 -126.35,-20.81l237.03 -37.73c-49.75,-39.16 -533.17,-64.11 -639.05,-72.22 -410.11,-31.39 -862.75,-77.96 -1251.15,-189.59 -99.06,-28.47 -185.51,-58.03 -280.26,-91.44 -49.38,-17.41 -87.3,-35.03 -148.63,-31.98 -62.66,3.11 -129.21,29.99 -116.72,91.26z"/>
  <path class="fil1" d="M10575.84 8408.15l0 0zm-5140.89 -5881.17c454.4,-120.6 1055.46,-145.41 1520.21,-150.71 239.6,-2.73 477.44,3.53 712.44,16.39 113.91,6.24 233,16.42 340.46,28.93l325.34 44.34c20.95,-35.42 33,-80.23 51.51,-117.56 57.51,-115.93 141.49,-209.8 287.99,-237.67 294.26,-56 713.69,224.04 942.37,364.81 75.73,46.62 338.53,224.94 420.52,245.2 293.22,72.44 575.47,157.91 832.72,306.9 38.07,22.05 65.31,43.34 99.97,68.05l200.59 140.73c275.27,181.96 314.85,385.78 344.96,722.28 62.09,11.85 139.83,34.82 199.03,53.02 288.15,88.57 683.87,230.11 773.99,550.32 23.7,84.2 23.1,166.59 20.54,248.46 -5.49,175.69 11.32,138.39 -56.56,195.28l41.38 21.05c8.12,56.61 2.85,166.6 -0.5,223.95 -7.18,123.02 -33.6,94.09 -97.13,142.13l48.8 23.88c-4.26,38.67 -36,132.4 -48.93,172.94 -24.46,76.73 -18.47,106.07 -107.67,127.06l54.14 24.72c-9.75,57.96 -177.74,201.51 -239.7,253.14l-110.33 80.35c-15.32,11.3 -13.67,14.54 -21.3,34.64 -22.14,58.37 -45.06,106.36 -74.8,157.78 -88.31,152.73 -310.93,386.14 -597.96,404.95 4.06,-16.09 47.8,-90.39 60.39,-114.2 28.91,-54.71 165.56,-319.5 145.06,-358.19 -40.31,-36.97 -207.71,-49.91 -282,-49.19 -15.1,52.08 -53.64,99.94 -80.39,144.94 -10.1,17 -20.28,28.05 -30.83,44.04 -118.68,179.87 -297.44,352.88 -536.98,405.01 1.29,19.32 15.13,55.92 20.43,77.64 78.58,322.01 -69.9,464.8 -76.4,505 144.44,-3.12 404.38,-170.21 516.72,-236.14 99.97,-58.66 183.96,-132.13 194.05,50.98 2.81,50.99 -2.84,100.22 -13.72,144.54 -13.66,55.63 -29.15,78.89 -47.22,122.12l18.89 10.57c38.89,16.65 80,37.08 121,46.41 1.57,181.62 -126.99,402 -220.88,537.32 -47.69,68.73 -116.14,146.42 -186.13,212.54 -34.06,32.17 -180.45,160.13 -242.78,160.45l17.12 -89.91c-61.91,34 -117.51,67.18 -187.65,100 -120.87,56.55 -564.25,246.87 -655.59,187.89 -3.45,-29.37 24.66,-103.52 27.13,-142.25 -136.36,46.13 -444.95,166.72 -582,123.18 -5.1,-31.27 25.28,-89.45 27.15,-128.51 -121.47,20.83 -287.57,63.78 -392.11,27.17 -3.32,-56.58 68.7,-170.71 74.25,-233.46l-305.73 -11.18c-23.49,-146.28 -145.07,-337.26 -223.92,-420.43 -69.86,-73.67 -107.18,-59.62 -246.74,-36.22 -386.67,64.82 -1079.67,259.67 -1399.23,428.07 -47.11,24.83 -63.85,10.35 -114.91,-0.67 -74.18,-16.01 -155.23,-36.22 -226.66,-56.09 -197.51,-54.93 -1206.98,-320.19 -1216.88,-534.56 23.77,-18.39 76.87,-23.27 108.58,-31.34 24.02,-6.11 90.62,-15.71 109.69,-31.79 -33.55,-15.78 -83.24,-28.37 -119.95,-42.75 -232.35,-91.05 -428.67,-225.7 -614.07,-389.6 -25.98,-22.96 -61.5,-55.2 -82.59,-82.61 147.92,14.76 279.92,-26.59 424.13,-61.13l-147.04 -73c-135.98,-73.79 -263.43,-164.23 -395.61,-244.55l-190.85 -131.42c-22.43,-16.09 -38.07,-25.7 -63.2,-44.31 -21.49,-15.92 -42.98,-26.65 -63.88,-43.48 -24.84,-20 -39.39,-28.85 -63.02,-44.58 -21.51,-14.31 -40.91,-31.2 -62,-45.93 -22.13,-15.47 -45.02,-26.9 -62.79,-46.89 5.05,-4.92 -2.54,-0.05 10.55,-7.2 9.9,-5.41 -0.58,-0.05 7.36,-3.46 1.92,-0.82 13.38,-4.5 14.71,-4.93 50.91,-16.65 205.39,-59.28 231.78,-77.72 -9.26,-6.62 -63.96,-26.26 -78.67,-32.5 -75.26,-31.94 -153.67,-75.91 -223.67,-115.97 -290.44,-166.26 -567.42,-360.5 -830.71,-553.56 -46.64,-34.2 -87.92,-65.9 -133.32,-101.72 -41.39,-32.66 -87.83,-66.52 -127.39,-103.93 -63.93,-60.47 -81.33,-55.71 -68.3,-152.65 24.47,-182.11 65.7,-365.88 101.99,-545.67 13.15,-65.12 72.24,-312.89 72.67,-359.24 -36.08,-32.15 -148.88,-106.06 -169.88,-134.93 66.52,-87.46 451.64,-361.83 543.3,-426.99 522.42,-371.34 1243.65,-703.31 1877.69,-867.59 67.29,-17.43 139.98,-31.01 207.32,-50.63l-28.33 -210.15zm5140.89 5881.17c1.25,24.08 -7.7,34.24 -6.45,58.32 55.19,-21.01 128.1,-37.72 178.41,-66.55 56.87,-32.59 93,-60.31 139.81,-100.15 59.98,-51.06 125.28,-113.69 172.68,-176.3 25.18,-33.26 54.45,-62.96 75.63,-98.41l68.65 -103.72c35.1,-58.86 66.7,-121.76 92.16,-187 41.09,-105.28 58.58,-192.27 69.63,-309.52 -20.79,-7.63 -36.6,-14.06 -58.89,-22.33 -17.65,-6.54 -45.55,-21.36 -62.22,-23.48 -0.7,-13.58 25.56,-96.74 30.44,-124.37 6.78,-38.31 10.19,-101.88 4.66,-148.41 -13.68,-115.09 -76.82,-179.26 -186.72,-125.04l-114.47 64.63c-38.58,22.3 -75.06,41.93 -113.28,65.54 -46.41,28.67 -190.1,110.94 -238.84,121.73 37.75,-102.84 53.59,-202.68 34,-349.3 -16.83,-125.96 -44.25,-78.11 65.85,-126.91 29.93,-13.27 47.08,-21.09 73.01,-37.17l67.16 -45.84c82.08,-57.68 156.6,-130.52 216.9,-210.09l128.78 -180.2c13.09,-19.37 29.51,-47.2 37.34,-68.54 42.44,-5.76 148.65,8.69 179.67,18.71 -44.33,120.77 -100.42,236.26 -162.73,348.27 -6.53,11.75 -11.09,20.07 -18.05,32.63 -12.56,22.69 -25.75,37.24 -41.02,57.3 -7.74,10.18 -12.48,16.66 -20.41,26.63 -10.93,13.77 -16.6,14.88 -15.58,34.51 52.89,-7.18 93.85,1.96 152.31,-6.27 64.33,-9.07 100.63,-15.19 149.72,-33.65 44.3,-16.67 80.98,-35.61 119.87,-56.31 105.42,-56.12 202.1,-139.02 274.13,-233.98 59.74,-78.76 108.73,-162.37 146.4,-255.31 14.41,-35.54 6.91,-24.97 38.86,-46.3 49.56,-33.08 96.13,-72.5 140.88,-111.98 17.27,-15.24 28.8,-27.05 45.05,-41.59 48.94,-43.81 133.37,-119.53 152.75,-178.82 3.03,-9.26 3.49,-19.46 5.2,-29.76 5.31,-31.97 25.44,-55.27 35.78,-86.58l92.96 -295.98c44.03,-89.67 13.09,-308.13 24.44,-352.35 6.17,-24.06 4.72,5.48 7.01,-28.39 0.8,-11.88 -0.01,-21.95 0.13,-37.84 0.19,-22.48 2.31,-49.35 2.98,-73.61 2.32,-82.76 14.43,-202.52 -14.23,-302.55 -34.2,-119.39 -82.72,-196.7 -158.3,-273.87 -110.18,-112.48 -313.94,-219.58 -460.82,-269.63 -99.48,-33.9 -195.88,-70.14 -297.96,-95.91 -15.96,-4.03 -47.85,-12.76 -64.94,-14.37 7.05,-74.7 -30.37,-247.87 -50.93,-315.26 -50.62,-165.84 -166.69,-321.78 -309.69,-407.28 -74.26,-44.4 -134.95,-90.37 -203.18,-142.91l-75.46 -50.39c-11.61,-6.73 -14.35,-10.31 -24.91,-17.12l-52.63 -30.55c-186.73,-109 -398.07,-170.4 -603.78,-231.32l-195.39 -53.43c-64.81,-17.81 -367.43,-212.2 -428.55,-251.1l-209.73 -128.76c-101.14,-62.02 -226.52,-124.5 -336.11,-167.64 -41.19,-16.21 -79.24,-31.93 -123.29,-42.94 -152.01,-37.98 -287.11,-51.06 -432.23,30.66 -111.92,63.02 -184.37,174.99 -228.15,294.27 -22.27,2.52 -56.21,-6.68 -80.74,-10.22l-250.39 -31.03c-228.56,-25.28 -466.9,-32.92 -698.9,-39.89 -119.26,-3.58 -241.06,0.89 -367.15,0.55 -123.41,-0.33 -246.5,6.46 -370.06,9.91 -32.05,0.89 -62.86,3.88 -94.13,7.37l-194.43 11.77c-17.07,1.82 -34.08,6.01 -51.25,6.41 -71.16,1.65 -175.13,15.15 -246.44,24.72 -33.12,4.45 -60.03,3.17 -99.21,8.51l-294.09 50.18c-57.21,14.27 -123.89,26.07 -180.92,47.78l28.06 206.83c-69.94,9.49 -138.29,33.29 -207.4,52.92 -66.78,18.97 -140.47,39.17 -204.82,59.1 -66.07,20.46 -132.16,41.79 -191.88,64.74 -126.15,48.48 -246.94,89.01 -370.43,143.83 -145.76,64.7 -293.84,127.23 -432.59,206.12 -144.45,82.13 -251.85,136.64 -402.05,229.37 -28.71,17.72 -47.78,30.16 -74.7,48.53 -26.9,18.35 -52.7,30.53 -79.61,49.01l-220.26 152.74c-99.44,67.77 -323.17,246.52 -409.69,328.94 -20.09,19.14 -40.18,48.89 -65.74,59.57 14.7,35.2 187.28,131.57 198.8,159.73l-33.41 172.69c-12.42,57.7 -24.28,111.53 -35.44,171.15 -32.33,172.78 -70.65,344.76 -98.19,519.63 -13.56,86.08 -14.35,111.66 40.12,167.34 71.07,72.65 306.8,259.87 372.15,297.52 44.82,25.82 84.24,64.61 128,92.13 42.1,26.47 86.29,67.11 128.69,91.23 34.92,19.87 65.19,47.9 100.16,67.8 14.07,8.01 19.58,14.16 33.23,22.8l267.01 169.81c22.52,15.2 44.04,25.62 67,39.35l211.94 120.31c-35.31,13.44 -74.17,24.04 -111.85,37.12 -38.54,13.39 -74.37,30.35 -112.75,36.44 8.25,19.73 38.44,36.24 57.01,46.94 50.97,29.37 155.3,118.04 213.63,156.85l94.09 64.69c40.05,23.07 190.23,134.93 249.48,170.69 75.31,45.44 145.24,97.5 220.46,142.35l148.83 86.93c12.89,8.31 7.84,0.05 14.01,14.82 -55.17,7.48 -112.95,20.72 -168.73,22.3 -15.09,0.43 -32.44,-3.21 -48.78,-2.37l-74.43 95.11 73.78 71.92c56.97,54.74 129.23,116.24 192.48,162.5l217.32 140.94 184.64 95.25c-19.13,2.6 -62.89,12.33 -73.94,19.61 -9.22,12.11 -12.09,83.76 21.06,132.95 27.65,41.02 89.3,90.37 132.09,114.45 17.84,10.04 34.26,18.94 53.35,29.6l272.43 123.92c135.25,52.95 276,98.8 414.89,141.66l487.87 134.4c62.84,15.82 123.29,31.6 187.51,41.79 31.54,5 39.28,-0.79 64.41,-15.07 180.65,-102.63 444.99,-183.51 650.34,-246.96 118.78,-36.7 805.22,-226.47 894.28,-196.24 45.16,15.33 126.27,144.37 153.52,191.54 31.36,54.29 62.05,116.66 82,180.27 8.88,28.31 8.44,48.16 14.36,80.83 5.82,32.13 22.22,19.52 56.06,20.5 25.02,0.72 47.23,1.47 74.15,2.26 28.61,0.84 45.43,2.22 73.59,3.01 19.64,0.55 53.5,4.06 73.58,3.01 -2.17,23 -12.55,41.75 -20.33,60.4 -25.76,61.71 -57.04,144.86 21.89,175.72 74.37,29.07 208.81,3.42 316.2,-11.15 2.74,52.72 -36.62,61.55 33.96,104.92 82.24,50.53 350.01,-26.78 441.27,-55.17 21.81,-6.78 60.49,-21.38 83.44,-25.02 -15.4,41.94 -10.84,70.19 23.59,96.39 99.3,75.54 470.32,-83.23 575.7,-125.05l207.95 -90.44z"/>
  <path class="fil1" d="M12175.73 4534.58c29.23,6.37 112.06,-23.38 120.4,35.26 10.69,75.24 -126.8,139.96 -131.36,203.74 -3.04,42.41 -15.93,28.7 -90.31,83.33 -141.3,103.78 -195.09,228.91 -225.49,435.98 -18.98,129.24 -52.61,459.7 -6.77,587.19 16.48,45.84 43.52,82.63 73.14,103.34 8.43,5.89 40.23,24.43 54.91,27.98 39.5,9.57 199.07,-172.17 204.65,-213.85 -59.38,-19.33 -171.82,15.02 -204.61,-89.25 83.25,-4.04 171.43,-5.86 249.68,-36.48 49.76,-19.48 69.5,-163.33 65.05,-190.24 -49.76,-0.78 -194.65,-6.65 -221.91,-37.48 -25.35,-54.9 125.46,-62.32 178.54,-71.46 103.13,-17.78 114.15,-17.96 122.61,-116.88 2.34,-27.35 4.44,-79.92 -0.77,-106.23 -14,-70.76 -129.77,18.76 -256.23,-38.43 -16.79,-7.59 -10.19,-2.16 -19.38,-15.04 25.55,-23.59 224.73,-101.2 281.43,-128.38 23.24,-11.15 19.86,-24.32 22.6,-50.93 13.12,-127.34 -10.18,-291.19 -66.96,-402.3 -33.89,-66.32 -97.8,-143.8 -153.6,-159.39l-30.65 -7.21 44.73 66.2 -50.23 -26.67c-35.36,-20.1 -115.82,-61.51 -153.32,-67.25 9.9,15.38 84.39,80.64 103.66,99.25 30.31,29.26 70.35,66.98 90.17,115.22z"/>
  <path class="fil1" d="M6617.29 2624.87c7.44,60.52 -1.11,48.88 22.27,111.16 13.81,36.82 26.8,69.21 43.65,102.13 31.84,62.19 75.27,120.85 116.69,168.35 160.16,183.63 422.47,338.77 652.44,427.65 75.09,29.02 313.36,118.15 400.2,115.25l-122.52 -156.11c-149.48,-10.36 -510.69,-197.08 -641.04,-290.26 -12.64,-9.04 -22.09,-13.07 -34.14,-21.71l-105.39 -77.47c-79.33,-63.99 -189.18,-156.8 -238.32,-251.7 -63.1,-121.87 14.63,-147.61 25.14,-177.36 -61.46,-12 -83.57,-23.7 -115.32,42.65l-3.67 7.43z"/>
  <path class="fil1" d="M8303.35 3378.99l-1.91 -26.7c52.57,35.02 134.29,52.66 210.79,68.35 77.49,15.9 148.31,36.66 216.33,64.84 188.15,77.96 247.72,87.88 466.16,85.1 207.85,-2.64 316.81,5.67 459,95.03 108.78,68.37 243.83,144.16 389.84,188.81l47.63 12.26c-28.35,-42.39 -360.74,-222.87 -407.41,-246.19 -138.85,-69.37 -284.85,-129.7 -466.53,-162.4 -334.07,-60.12 -407.96,-14.93 -772.51,-148.38l-230.92 -89.71c18.18,72.98 50.36,129.96 86.5,174.26 0.54,-1.06 1.58,-3.71 1.82,-3.08 0.25,0.65 1.13,-2.81 1.2,-3.53 0.31,-2.91 0.12,-4.7 0.01,-8.67z"/>
  <path class="fil1" d="M8613.24 2540.72c22.13,-38.81 13.08,-57.83 47.19,-100.67 148.27,-186.18 629.57,123.25 848.62,106.01l-62.06 -26.81c-21.01,-8.23 -42,-16.97 -64.17,-26.44 -169.06,-72.2 -526.12,-269.89 -672.47,-212.98 -80.9,31.46 -130.78,155.33 -97.11,260.89z"/>
  <g id="_1929401491360">
   <path class="fil0" d="M13115.96 7507.6l1151.61 0.12c20.96,-10.72 8.15,0.52 19.68,-19.56l606.76 -2245.47 -28.48 2265.03 867.44 -0.05 1035.54 -1990.97c48.04,-89.55 109.71,-195.28 149.59,-282.09l-605.69 2272.13 1164.66 1 1006.43 -3759.72 -1601.34 -0.68 -1211.48 2452.07 84.39 -2452.07 -2039.3 -0.01c23.05,134.13 177.19,544.32 209.8,685.88 10.37,45.03 -35.18,180.63 -50.02,235.74l-633.4 2363.47c-40.64,154.3 -95,321.11 -126.2,475.18z"/>
   <path class="fil0" d="M30088.53 4764.01l1278.46 0.45 -460.61 1727.17 -1278.77 -0.46 460.91 -1727.16zm2507.01 -330.45c33.41,-335 -114.93,-537.09 -362.89,-621.57 -250.1,-85.2 -655.56,-64.66 -935.59,-64.66 -332.29,0 -666.93,-3.88 -998.94,1.03 -324.88,4.81 -571.87,27.45 -815.86,173.83 -455.4,273.2 -518.9,684.51 -685.4,1303.37 -70.85,263.36 -138.7,525.7 -210.76,787.93 -93.66,340.84 -313.18,920.52 -107.74,1219.81 62.57,91.15 150.12,171.25 281.57,213.11 256.52,81.68 653.66,61.3 938.82,61.3 332.29,0 666.95,3.91 998.94,-0.68 328.98,-4.56 569.78,-25.57 816.11,-173.99 470.33,-283.39 534.96,-762.31 679.69,-1308.98 87.76,-331.46 375.13,-1320.63 402.05,-1590.51z"/>
   <path class="fil0" d="M34500.82 3747.4l-1575.82 1.04c23.23,97.68 64.54,213.96 96.24,311.85 32.72,101.03 62.01,201.38 95.44,304.19 24.67,75.83 31.27,76.36 9.29,156.42l-464.96 1732.88c-87.72,336.55 -333.03,989.69 138.72,1176.92 294.78,117 1151.98,77.01 1522.69,77.01 746.78,0 1455.08,99.9 1781.2,-627.15 114.19,-254.59 450.92,-1564.56 528.44,-1869.09 91.33,-358.82 272.88,-952.74 337.24,-1264.16l-1153.24 0c-26.09,6.87 -46.11,117.5 -58.04,161.98 -15.29,56.99 -31.53,115.48 -46.75,172.58 -30.74,115.33 -59.84,227.87 -92.31,345.02l-462.88 1725.43c-27.75,106.36 -68.64,232.55 -88.58,338.96l-1300.87 -0.73 734.19 -2743.17z"/>
   <path class="fil0" d="M20670.31 4947.75c160.84,-29.63 509.55,-184.97 637.2,-185.38l1375.1 0.5c-1.7,2.31 -4.53,2.61 -5.57,6.54 -4.5,17.09 -1129.15,806.49 -1181.22,841.61 -137.03,92.42 -268.15,191.45 -401.52,283.56 -270.69,186.94 -526.69,373.37 -797.13,563.34 -51.72,36.33 -43.06,31.77 -61.06,100.28 -35.59,135.43 -247.37,890.96 -249.14,945.1l3599.25 0c30.01,-54.95 267.91,-957.23 280.53,-1015.02l-2062.1 -0.43c32.28,-36.18 1060.46,-777.37 1154.84,-849.67 128.01,-98.06 261.3,-186.44 390.07,-285.41l775.25 -566.21c44.53,-32.26 36.46,-41.47 54.11,-108.01 74.17,-279.6 191.27,-677.11 247.28,-929.2l-3432.47 -2.01 -323.43 1200.4z"/>
   <path class="fil0" d="M25957.33 6488.57c32.39,-35.92 708.71,-521.21 773.68,-570.43 374.91,-284.02 786.01,-570.31 1164.76,-852.15 67.15,-49.97 124.83,-93.17 191.78,-141.04 64.85,-46.37 131.54,-92.96 193.25,-139.88 39.06,-29.7 39.26,-63.32 53.57,-117.9l104.52 -390.23c43.26,-168.48 107.23,-360.03 139.98,-528.34l-3435.47 1.01 -319.17 1199.11c126.13,-25.32 292.46,-92.67 423.18,-133.74 81.83,-25.71 133.09,-52.23 227.2,-51.85 440.12,1.79 938.7,-15.44 1361.8,1.33 -28.82,34.33 -58.42,47.45 -98.15,76.43l-301.21 212.59c-252.09,186.49 -545.52,378.2 -796.48,563.87l-796.66 563.72c-131.54,94.15 -263.38,190.51 -395.91,279.54 -58.57,39.35 -39.94,25.26 -62.69,108.77 -12.79,46.97 -22.61,87.33 -35.86,135.08l-211.92 799.42 3609.3 -0.08 271.57 -1014.64 -2061.07 -0.61z"/>
   <path class="fil2" d="M16474.75 6355.32l2.83 2.84c-0.19,-0.19 -3.78,-1.89 -2.83,-2.84zm-3358.79 1152.28c31.19,-154.07 85.56,-320.89 126.2,-475.18l633.4 -2363.47c14.84,-55.11 60.39,-190.71 50.02,-235.74 -32.6,-141.56 -186.75,-551.74 -209.8,-685.88l2039.3 0.01 -84.39 2452.07 1211.48 -2452.07 1601.34 0.68 -1006.43 3759.72 -1164.66 -1 605.69 -2272.13c-39.89,86.81 -101.56,192.55 -149.59,282.09l-1035.54 1990.97 -867.44 0.05 28.48 -2265.03 -606.76 2245.47c-11.53,20.08 1.28,8.85 -19.68,19.56l-1151.61 -0.12zm5665.86 -3755.13c60.16,-14.36 1478.14,-5.14 1578.9,-5.14l-1005.98 3758.07 -1168.53 2.37c23.35,-138.05 86.43,-328.44 124.25,-468.3 42.35,-156.68 86.27,-314.99 126.32,-472.42 80.64,-317.01 167.29,-632.72 253.2,-945.45 86.66,-315.48 166.08,-630.12 253.67,-945.33 78.83,-283.69 68.48,-186.13 -21.29,-473.74 -46.09,-147.65 -90.25,-307.54 -140.54,-450.07zm-4989.93 700.12c0,40.15 -673.84,2511.8 -744.09,2785.48l-102.62 401.61 1446.08 0c1.09,-49.09 241.62,-924.73 266.31,-1018.04 13.99,-52.87 32.02,-113.77 45.69,-163.61 8.64,-31.5 13.25,-54.48 20.9,-83.75 5.27,-20.19 5.63,-22.32 12.62,-44.46l16.01 -41.08c0,110.24 -9.52,211.49 -9.52,332.98 0,114.17 -0.53,228.46 0.13,342.62 0.39,68.98 -10.13,95.05 -9.86,161.39l0.22 513.96 1056.02 0c39.62,0 105.21,-167.46 136.31,-225.2l250.62 -472.42c16.05,-29.8 27.31,-54.77 41.18,-82.5 13.86,-27.73 25.13,-52.69 41.18,-82.5l215.69 -402.7c-5.9,70.88 -326.88,1192.03 -332.98,1265.32l1436.57 0c70.79,-303.85 183.29,-663.71 260.62,-976.16l198.06 -734.28c103.22,-402.11 228.26,-828.4 327.1,-1223.63 41.75,-166.93 89.72,-320.75 131.44,-486.95l129.28 -498.63 227.83 705.19c15.7,48.3 1.95,70.65 -12.37,119.14l-299.19 1118.36c-20.79,84.56 -43.7,154.73 -64.73,239.7 -21.6,87.24 -42.02,162.05 -66.34,247.62 -48.26,169.9 -83.4,326.15 -131.7,496.2 -8.17,28.74 -261.39,949.59 -262.37,993.44l1417.54 0c37.1,0 40.13,-68 49.53,-102.69l643.83 -2400.55c50.26,-169.32 87.59,-337.77 137.7,-509.23l272.53 -1011.82 -3738.87 0c-10.06,43.2 -205.04,419.59 -241.02,491.54 -83.81,167.62 -161.82,333.16 -244.19,497.89 -65.59,131.2 -324.54,631.86 -369.7,743.4l-125.01 246.02c0,-47.73 9.3,-66.15 9.89,-113.78 0.55,-44.2 -0.42,-89.48 -0.6,-133.8l9.61 -247.26c-1.52,-263.96 38.88,-717.65 38.19,-989.28l19.01 -494.72 -2359.39 0c5.23,62.86 41.46,143.45 59.09,207.29l65.76 210.14c22.4,66.57 43.24,139.4 66.7,209.2 6.55,19.5 65.32,204.15 65.32,210.57z"/>
   <path class="fil0" d="M18781.82 3752.47c50.28,142.52 94.45,302.42 140.54,450.07 89.77,287.6 100.12,190.05 21.29,473.74 -87.59,315.2 -167,629.84 -253.67,945.33 -85.91,312.74 -172.56,628.44 -253.2,945.45 -40.06,157.43 -83.97,315.74 -126.32,472.42 -37.81,139.86 -100.89,330.25 -124.25,468.3l1168.53 -2.37 1005.98 -3758.07c-100.76,0 -1518.74,-9.22 -1578.9,5.14z"/>
   <path class="fil2" d="M25957.33 6488.57l2061.07 0.61 -271.57 1014.64 -3609.3 0.08 211.92 -799.42c13.25,-47.74 23.07,-88.11 35.86,-135.08 22.74,-83.51 4.11,-69.42 62.69,-108.77 132.52,-89.04 264.37,-185.39 395.91,-279.54l796.66 -563.72c250.96,-185.67 544.39,-377.38 796.48,-563.87l301.21 -212.59c39.73,-28.98 69.33,-42.11 98.15,-76.43 -423.09,-16.78 -921.67,0.45 -1361.8,-1.33 -94.11,-0.38 -145.37,26.14 -227.2,51.85 -130.72,41.07 -297.05,108.42 -423.18,133.74l319.17 -1199.11 3435.47 -1.01c-32.74,168.31 -96.72,359.86 -139.98,528.34l-104.52 390.23c-14.3,54.58 -14.5,88.2 -53.57,117.9 -61.71,46.92 -128.39,93.51 -193.25,139.88 -66.94,47.87 -124.63,91.06 -191.78,141.04 -378.75,281.83 -789.85,568.12 -1164.76,852.15 -64.97,49.22 -741.29,534.51 -773.68,570.43zm-1329.36 -1331.97c21.29,-10.21 66.89,-20.63 93.96,-29.72l675 -219.29c88.4,-26.09 853.37,-7.86 1019.62,-7.86l-755.61 538.25c-65.91,47.67 -123.13,87.2 -190.06,133.4l-953.03 673.81c-294,212.65 -204.95,95.08 -283.3,363.63l-272.53 1030.85 3891.09 0c4.25,-51.04 27.3,-109.91 40.09,-159.7l258.75 -959c15.4,-61.34 30.37,-108.64 43.65,-165.65l-1826.63 0c18.98,-28.33 54.35,-45.31 84.29,-67.93l1851.01 -1355.1c40.86,-29.38 110.61,-63.23 127.59,-110.26 33.6,-93.08 155.36,-582.57 187.84,-696.93l102.52 -382.68c11.42,-39.07 20.57,-97.63 34.69,-127.05l-3719.85 0 -48.71 189.14c-17.87,60.22 -35.91,129.37 -52.19,195.17l-152.06 570.98c-47.17,187.91 -112.22,397.46 -156.13,585.94z"/>
   <path class="fil2" d="M20993.74 3747.35l3432.47 2.01c-56.01,252.08 -173.11,649.59 -247.28,929.2 -17.65,66.54 -9.58,75.75 -54.11,108.01l-775.25 566.21c-128.76,98.97 -262.06,187.35 -390.07,285.41 -94.39,72.3 -1122.57,813.49 -1154.84,849.67l2062.1 0.43c-12.63,57.79 -250.52,960.07 -280.53,1015.02l-3599.25 0c1.77,-54.14 213.56,-809.68 249.14,-945.1 18,-68.5 9.34,-63.95 61.06,-100.28 270.44,-189.97 526.43,-376.39 797.13,-563.34 133.37,-92.11 264.49,-191.14 401.52,-283.56 52.07,-35.12 1176.72,-824.52 1181.22,-841.61 1.04,-3.94 3.87,-4.23 5.57,-6.54l-1375.1 -0.5c-127.65,0.41 -476.36,155.75 -637.2,185.38l323.43 -1200.4zm-513.74 1409.25c60.69,-29.12 470.85,-151.94 574.42,-186.67 329.26,-110.45 260.17,-70.19 690.9,-70.19 171.24,0 342.49,0 513.74,0l-848.5 607.08c-345.96,234.28 -700.56,499.83 -1048.54,740.04l-189.53 133.94c-50.1,36.66 -38.68,40.96 -55.99,105.74 -9.67,36.2 -23.74,89.07 -34.93,126.8l-277.04 1026.34 3891.09 0 342.49 -1284.35 -1826.63 0 915.2 -673.58c34.66,-23.59 61.28,-45.93 93.31,-68.42 32.85,-23.07 60.85,-43.35 93.7,-68.03l742.1 -542.24c177.38,-133.88 209.28,-117.19 241.23,-243.97 10.06,-39.91 23.65,-89.76 34.05,-127.68 67.1,-244.67 134.13,-526.45 202.88,-758 11.82,-39.81 20.43,-83.31 33.55,-128.18 11.42,-39.06 28.58,-89.83 31.91,-129.83l-3710.33 0 -361.52 1341.43c-13.39,54.57 -46.31,143.15 -47.57,199.79z"/>
   <path class="fil2" d="M33766.63 6490.57l1300.87 0.73c19.94,-106.41 60.83,-232.6 88.58,-338.96l462.88 -1725.43c32.47,-117.15 61.57,-229.69 92.31,-345.02 15.22,-57.1 31.46,-115.59 46.75,-172.58 11.93,-44.48 31.95,-155.11 58.04,-161.98l1153.24 0c-64.36,311.42 -245.91,905.34 -337.24,1264.16 -77.52,304.53 -414.25,1614.5 -528.44,1869.09 -326.12,727.04 -1034.43,627.15 -1781.2,627.15 -370.7,0 -1227.91,39.98 -1522.69,-77.01 -471.74,-187.23 -226.43,-840.37 -138.72,-1176.92l464.96 -1732.88c21.98,-80.06 15.38,-80.59 -9.29,-156.42 -33.44,-102.81 -62.72,-203.16 -95.44,-304.19 -31.7,-97.89 -73.01,-214.18 -96.24,-311.85l1575.82 -1.04 -734.19 2743.17zm-766.62 -2037.99c0,42.86 -146.76,572.92 -160.59,619.53l-164.76 615.36c-83.26,338.69 -293.03,958.78 -293.03,1286.24 0,244.31 127.1,444.39 282.2,535.96 172.17,101.66 419.8,129.99 688.19,129.99l1588.78 0c243.69,0 493.26,-29.69 670.14,-100.47 642.96,-257.3 697.89,-861.74 874.45,-1465.92 108.49,-371.27 222.22,-836.25 327.65,-1223.08l164.83 -615.29c15.47,-52.09 159.52,-571.44 160.59,-619.53l-1417.54 0c-39.65,0 -39.91,73.63 -61.1,148.2l-139.83 516.62c-15.69,52.86 -32.08,117.83 -46.5,172.31l-416.58 1552.75c-16.56,60.35 -86.63,307.31 -87.58,350.05l-1027.48 0c26.93,-115.57 60.25,-221.78 89.48,-338.64 15.42,-61.67 28.89,-111.96 45.67,-173.15 14.26,-52.02 30.11,-115.94 46.75,-172.06 32.08,-108.11 61.06,-222.37 90.09,-338.03 83.62,-333.16 191.39,-690.77 275.9,-1027.48 55.15,-219.7 133.83,-472.33 184.67,-690.59l-1931.28 0c30.1,129.19 256.87,790.13 256.87,837.2z"/>
   <path class="fil2" d="M32595.54 4433.56c-26.91,269.88 -314.29,1259.04 -402.05,1590.51 -144.72,546.67 -209.36,1025.59 -679.69,1308.98 -246.32,148.42 -487.12,169.43 -816.11,173.99 -331.98,4.59 -666.65,0.68 -998.94,0.68 -285.16,0 -682.3,20.38 -938.82,-61.3 -131.46,-41.86 -219,-121.95 -281.57,-213.11 -205.44,-299.3 14.08,-878.97 107.74,-1219.81 72.06,-262.23 139.91,-524.57 210.76,-787.93 166.5,-618.87 230,-1030.17 685.4,-1303.37 244,-146.38 490.98,-169.02 815.86,-173.83 332,-4.91 666.65,-1.03 998.94,-1.03 280.03,0 685.49,-20.54 935.59,64.66 247.97,84.48 396.3,286.57 362.89,621.57zm-3362.95 3206.11l1522.19 0c564.51,0 1030.62,-178.68 1287.53,-691.32 141.93,-283.2 219.23,-698.23 311.91,-1010.49 50.59,-170.44 89.93,-355.31 140.43,-525.54 51.11,-172.27 88.62,-342.41 138.35,-518.09 113.17,-399.82 209.69,-854.19 -186.55,-1124.87 -162.07,-110.72 -422.23,-153.98 -692.73,-153.98l-1503.16 0c-280.94,0 -546.31,43.95 -735.8,139.46 -469.81,236.81 -601.27,550.62 -733.33,1017.19 -33.09,116.88 -63.5,228.12 -93.11,344.52 -13.95,54.83 -30.06,114.94 -45.5,173.31l-378.21 1476.96c-4.81,37.92 -2.13,68.61 -7.97,106.32 -32.52,210.1 91.47,467.17 267.72,599.52 185.76,139.48 462.83,167.02 708.24,167.02z"/>
   <path class="fil2" d="M30802.35 6355.32l-998.94 0 46.43 -181.9c81.94,-276.09 161.85,-622.52 243,-908.16l100.63 -365.53 998.94 0 -96.28 360.38c-35.55,119.84 -62.15,241.92 -98.01,368.16l-195.77 727.05zm-1174.73 135.85l1278.77 0.46 460.61 -1727.17 -1278.46 -0.45 -460.91 1727.16z"/>
  </g>
 </g>
</svg>
