<?xml version="1.0" encoding="UTF-8"?>
<!DOCTYPE svg PUBLIC "-//W3C//DTD SVG 1.1//EN" "http://www.w3.org/Graphics/SVG/1.1/DTD/svg11.dtd">
<!-- Creator: CorelDRAW 2017 -->
<svg xmlns="http://www.w3.org/2000/svg" xml:space="preserve" width="15in" height="15in" version="1.1" style="shape-rendering:geometricPrecision; text-rendering:geometricPrecision; image-rendering:optimizeQuality; fill-rule:evenodd; clip-rule:evenodd"
viewBox="0 0 15000 15000"
 xmlns:xlink="http://www.w3.org/1999/xlink">
 <defs>
  <style type="text/css">
   <![CDATA[
    .fil2 {fill:#FD4400}
    .fil0 {fill:#FF4400}
    .fil1 {fill:#FFFCFD}
   ]]>
  </style>
 </defs>
 <g id="Layer_x0020_1">
  <metadata id="CorelCorpID_0Corel-Layer"/>
  <g id="_2844399894496">
   <path class="fil0" d="M8150.43 3457.57c67.02,-929.72 1208.12,-992.98 1462.03,-242.99 266.46,787.06 -796.87,1388.56 -1339.35,647.42 -181.43,37.49 -539.79,191.71 -711.56,269.39 -1140.91,515.89 -1687.24,1130.41 -397.17,2017.5 182.53,125.52 423.19,299.62 655.43,315.13 305.37,20.41 583.55,52.04 862.57,110.27 250.04,52.19 696.15,200.37 758.74,211.39 33.8,-33.06 82.65,-126.67 118.31,-170.16 574.07,-699.78 1666.25,-394.85 1818.1,471.49 29.74,169.7 9.03,352.37 -41.83,499.54 -75.26,217.77 -120.33,222.17 -202.93,354.99 24.5,70.58 251.04,302.38 393.92,733.37 506.32,1527.21 -780.15,2734.57 -2125.35,3212.92 -1745.42,620.67 -3955.26,331.17 -5218.04,-827.58 -328.61,-301.54 -718.49,-814.56 -802.11,-1422.33 -69.21,-503.09 25.24,-935.04 261.72,-1355.72 34.62,-61.59 67.79,-114.72 106.26,-171.41 27.34,-40.3 96.67,-127.25 111.3,-169.25 -36.98,-59.28 -80.92,-103.69 -120.7,-173.78 -570.23,-1004.7 695.52,-2039.49 1564.58,-1286.96 167.83,145.33 199.85,261.2 247.87,305.72 81.69,-13.05 218.47,-72.27 314.34,-99.98 111.19,-32.13 214.11,-58.53 330,-86.6 235.25,-56.98 460.18,-73.2 699.73,-120.43 -64.96,-58.74 -145.19,-110.56 -215.6,-166.44 -548,-434.86 -955.98,-1078.67 -462.87,-1747.61 372.93,-505.89 1311.87,-924.29 1932.59,-1107.9zm-7764.86 3616.73l0 749.87c23.83,55.86 69.04,621.65 89.17,748.19 166.2,1045.01 601.69,2149.4 1218.26,2992.41 206.81,282.76 426.91,551.69 663.99,808.23 38.33,41.48 73.79,66.24 113.42,108.63 548.59,586.72 1237.57,1018.93 1978.24,1397.07 540.8,276.1 1304.41,499.06 1930.32,597.92 124.82,19.71 714.46,70.41 761.33,89.92l712.77 0c39.72,-16.56 631.17,-68.72 750.61,-87.71 1171.96,-186.27 2051.78,-576.87 3001.62,-1220.26 175.86,-119.12 318.95,-247.91 477.11,-370.08l221 -195.57c173.44,-149.3 480.41,-471.43 620.59,-643.44 843.58,-1035.15 1379.88,-2121.58 1594.13,-3476.26 19.86,-125.58 69.85,-714.11 89.67,-761.49l0 -724.83c-48.22,-112.7 -39.82,-1398.52 -696.95,-2697.9 -344.13,-680.46 -523.78,-956.93 -998.94,-1543.56 -68.7,-84.82 -136.2,-148.46 -203.42,-226.81 -34.86,-40.64 -61.75,-71.32 -98.75,-109.72 -258.36,-268.09 -735.79,-676.82 -1029.06,-873.73 -970.54,-651.64 -1834.12,-1024.31 -3026.49,-1211.45 -133.79,-21 -690.6,-57.3 -751.9,-79.39l-698.78 0c-50.92,22.45 -231.43,26.81 -396.39,44.26 -961.14,101.62 -2025.04,453.17 -2830.54,946.79 -179.82,110.2 -345.4,213.93 -504.9,328.43 -426.01,305.82 -989.17,799.06 -1313.77,1214.22 -62.26,79.62 -126.07,146.82 -186.81,229.73 -64.22,87.66 -113.87,147.46 -177.59,239 -113.92,163.69 -224.77,327.75 -331.93,515.4 -446.86,782.56 -743.15,1550.04 -884.92,2464.29 -18.65,120.29 -36.69,240.67 -49.25,364.29 -11.56,113.69 -1.68,291.31 -41.85,383.58z"/>
   <path class="fil1" d="M6157.76 10919.12c-205.81,-76.13 -385.18,-147.37 -572.62,-246.42 -94.17,-49.75 -171.85,-90.47 -259.27,-143.6 -343.18,-208.56 -129.14,-440.83 32.02,-438.65 91.7,1.24 201.52,90.28 274.94,131.43 1214.04,680.47 2561,738.64 3758.06,-11.1 77.33,-48.43 156.13,-130.43 272.35,-119.51 103.34,9.7 186.06,95.28 183.54,211.23 -2.72,124.91 -97.13,176.23 -177.57,228.36 -651.05,421.91 -1308.54,641.94 -2130.86,640.42 -470.11,-0.87 -985.82,-106.14 -1380.59,-252.16zm3396.55 -2911.69c442.27,-68.46 786.56,269.41 839.06,632.98 64.91,449.52 -260.68,794.8 -641.22,849.45 -442.15,63.5 -790.06,-263.99 -843.09,-640.18 -57.01,-404.39 210.53,-774.97 645.26,-842.26zm-4279 -1.06c434.11,-71.32 784.25,270.98 835.51,639.02 61.9,444.36 -263.39,789.19 -638.26,843.83 -444.38,64.77 -790.02,-260.24 -846.19,-636.92 -69.13,-463.57 265.9,-783 648.93,-845.93zm2875.12 -4548.81c-620.72,183.61 -1559.67,602 -1932.59,1107.9 -493.11,668.93 -85.13,1312.75 462.87,1747.61 70.41,55.88 150.63,107.7 215.6,166.44 -239.55,47.22 -464.48,63.45 -699.73,120.43 -115.89,28.07 -218.81,54.46 -330,86.6 -95.87,27.71 -232.66,86.93 -314.34,99.98 -48.02,-44.52 -80.04,-160.4 -247.87,-305.72 -869.06,-752.52 -2134.81,282.26 -1564.58,1286.96 39.78,70.09 83.72,114.5 120.7,173.78 -14.63,42 -83.95,128.95 -111.3,169.25 -38.47,56.69 -71.64,109.81 -106.26,171.41 -236.48,420.68 -330.93,852.63 -261.72,1355.72 83.62,607.78 473.5,1120.8 802.11,1422.33 1262.78,1158.76 3472.62,1448.25 5218.04,827.58 1345.2,-478.35 2631.67,-1685.71 2125.35,-3212.92 -142.89,-430.99 -369.43,-662.79 -393.92,-733.37 82.6,-132.81 127.68,-137.22 202.93,-354.99 50.86,-147.17 71.57,-329.83 41.83,-499.54 -151.85,-866.34 -1244.04,-1171.27 -1818.1,-471.49 -35.67,43.48 -84.52,137.09 -118.31,170.16 -62.6,-11.02 -508.7,-159.2 -758.74,-211.39 -279.02,-58.23 -557.19,-89.87 -862.57,-110.27 -232.25,-15.52 -472.9,-189.62 -655.43,-315.13 -1290.07,-887.09 -743.74,-1501.61 397.17,-2017.5 171.77,-77.67 530.13,-231.9 711.56,-269.39 542.48,741.14 1605.81,139.63 1339.35,-647.42 -253.91,-749.99 -1395.01,-686.72 -1462.03,242.99z"/>
   <path class="fil2" d="M7538.35 11171.28c822.32,1.52 1479.81,-218.51 2130.86,-640.42 80.44,-52.13 174.85,-103.45 177.57,-228.36 2.52,-115.96 -80.2,-201.53 -183.54,-211.23 -116.22,-10.91 -195.03,71.08 -272.35,119.51 -1197.06,749.74 -2544.02,691.57 -3758.06,11.1 -73.41,-41.15 -183.23,-130.19 -274.94,-131.43 -161.16,-2.19 -375.2,230.09 -32.02,438.65 87.42,53.13 165.11,93.85 259.27,143.6 187.44,99.04 366.81,170.29 572.62,246.42 394.76,146.02 910.48,251.29 1380.59,252.16z"/>
   <path class="fil0" d="M5275.31 8006.38c-383.03,62.93 -718.06,382.36 -648.93,845.93 56.17,376.69 401.81,701.69 846.19,636.92 374.87,-54.64 700.15,-399.47 638.26,-843.83 -51.26,-368.05 -401.4,-710.35 -835.51,-639.02z"/>
   <path class="fil0" d="M9554.31 8007.44c-434.73,67.29 -702.27,437.87 -645.26,842.26 53.03,376.19 400.95,703.68 843.09,640.18 380.54,-54.65 706.13,-399.93 641.22,-849.45 -52.5,-363.57 -396.78,-701.44 -839.06,-632.98z"/>
  </g>
 </g>
</svg>
